<svg xmlns="http://www.w3.org/2000/svg" viewBox="0 0 35.16 40.1"><defs><style>.cls-1,.cls-2{fill:none;stroke:#fff;stroke-miterlimit:10;stroke-width:0.18px;}.cls-2{fill-rule:evenodd;}</style></defs><title>Repubblica</title><g id="Livello_2" data-name="Livello 2"><g id="Livello_1-2" data-name="Livello 1"><path class="cls-1" d="M28.22,17.53A10.85,10.85,0,1,1,17.37,6.69,10.85,10.85,0,0,1,28.22,17.53"/><path class="cls-2" d="M31,16.8a.36.36,0,0,0-.36-.35h-1a12.61,12.61,0,0,0-.26-1.65l1-.32a.35.35,0,0,0,.23-.44l-.45-1.4a.35.35,0,0,0-.45-.23l-1,.31a11.47,11.47,0,0,0-.76-1.48l.82-.6a.35.35,0,0,0,.08-.49L28,9a.34.34,0,0,0-.49-.08l-.82.6A12,12,0,0,0,25.46,8.3l.59-.82A.35.35,0,0,0,26,7l-1.18-.86a.36.36,0,0,0-.5.07l-.6.82a12.89,12.89,0,0,0-1.48-.76l.31-1a.36.36,0,0,0-.23-.45L20.9,4.39a.35.35,0,0,0-.45.23l-.31,1a12.88,12.88,0,0,0-1.65-.26v-1A.36.36,0,0,0,18.13,4H16.66a.36.36,0,0,0-.35.36v1a12.61,12.61,0,0,0-1.65.26l-.31-1a.36.36,0,0,0-.45-.23l-1.4.45a.36.36,0,0,0-.23.45l.31,1A12.89,12.89,0,0,0,11.1,7l-.6-.82A.35.35,0,0,0,10,6.12L8.82,7a.35.35,0,0,0-.08.5l.6.82A11,11,0,0,0,8.16,9.48l-.82-.6a.35.35,0,0,0-.5.08L6,10.15a.34.34,0,0,0,.07.49l.82.6a12.89,12.89,0,0,0-.76,1.48l-1-.31a.36.36,0,0,0-.45.23L4.25,14a.35.35,0,0,0,.23.44l1,.32a12.61,12.61,0,0,0-.26,1.65h-1a.36.36,0,0,0-.36.35v1.47a.36.36,0,0,0,.36.36h1a12.88,12.88,0,0,0,.26,1.65l-1,.31a.35.35,0,0,0-.23.45l.45,1.39a.36.36,0,0,0,.45.23l1-.31a12.89,12.89,0,0,0,.76,1.48l-.82.6a.35.35,0,0,0-.07.5l.86,1.18a.35.35,0,0,0,.5.08l.82-.59a12,12,0,0,0,1.18,1.18l-.6.82a.34.34,0,0,0,.08.49L10,29a.35.35,0,0,0,.49-.08l.6-.82a11.47,11.47,0,0,0,1.48.76l-.31,1a.35.35,0,0,0,.23.45l1.4.45a.36.36,0,0,0,.45-.23l.31-1a11.13,11.13,0,0,0,1.65.26v1a.36.36,0,0,0,.35.36h1.47a.36.36,0,0,0,.36-.36v-1a11.34,11.34,0,0,0,1.65-.26l.31,1a.35.35,0,0,0,.45.23l1.39-.45a.35.35,0,0,0,.23-.45l-.31-1a11.47,11.47,0,0,0,1.48-.76l.6.82a.36.36,0,0,0,.5.08L26,28.09a.34.34,0,0,0,.08-.49l-.59-.82a13.14,13.14,0,0,0,1.18-1.18l.82.59a.34.34,0,0,0,.49-.08l.87-1.18a.36.36,0,0,0-.08-.5l-.82-.6a11.47,11.47,0,0,0,.76-1.48l1,.31a.35.35,0,0,0,.45-.23L30.54,21a.35.35,0,0,0-.23-.45l-1-.31a12.88,12.88,0,0,0,.26-1.65h1a.36.36,0,0,0,.36-.36Zm-5.11-4-6.32,1.61-.32-5.29L19.16,8a9.69,9.69,0,0,1,6.71,4.82M15.64,8l-.06,1-.34,5.45L8.92,12.81A9.71,9.71,0,0,1,15.64,8M7.69,17.54a10.24,10.24,0,0,1,.1-1.36l6,2.34-3.51,5.56a9.66,9.66,0,0,1-2.54-6.54m9.71,9.7a9.73,9.73,0,0,1-4.14-.92l4.14-5,4.13,5a9.72,9.72,0,0,1-4.13.92m7.17-3.16-3.52-5.56,6-2.34a10.24,10.24,0,0,1,.09,1.36,9.7,9.7,0,0,1-2.53,6.54"/><polygon class="cls-2" points="17.4 20.93 11.94 24.89 14.03 18.48 8.57 14.52 15.31 14.52 17.4 8.12 19.48 14.52 26.22 14.52 20.77 18.48 22.85 24.89 17.4 20.93"/><path class="cls-1" d="M17.4,8.56l1.92,5.91.06.19h6.41l-5,3.65-.17.12.07.19,1.92,5.91-5-3.65-.16-.12-.17.12-5,3.65,1.92-5.91.06-.19L14,18.31,9,14.66h6.41l.07-.19Zm0-.89-2.19,6.72H8.15l5.71,4.15-2.18,6.72L17.4,21.1l5.71,4.16-2.18-6.72,5.71-4.15H19.58Z"/><path class="cls-1" d="M25.34,2.68l-.29-.32c-.07-.07-.2-.27-.32-.23s0,.24-.14.31-.29-.07-.35-.19-.2-.2-.3-.32a4.56,4.56,0,0,0-.27-.39,2.19,2.19,0,0,0-.42-.38,1.65,1.65,0,0,0-.61-.33c-.26,0-.11.06-.19.19s-.17.05-.24,0S22,.7,21.78.67A1.2,1.2,0,0,1,21.16.5c-.27-.19-1.07-.32-1.34,0s0,.17,0,.29-.16.14-.28.14-.49.08-.41.38a.53.53,0,0,0,.17.33c.1.1.25.09.37.17s0,.46.06.68.33.3.62.33.49.08.75.09.27,0,.27.18-.15.16-.21.27c-.14.3.26.23.42.18s.17-.1.3,0,.24.24.4.3a.62.62,0,0,0,.56-.08c.17-.11.55-.18.67,0s-.37.32-.29.59.64.1.81.1a1.09,1.09,0,0,0,.45-.07A6.91,6.91,0,0,0,25.28,4a1,1,0,0,0,.27-.66.79.79,0,0,0-.21-.68"/><path class="cls-1" d="M25.28,3.14a2.22,2.22,0,0,1-1-.05,1.18,1.18,0,0,0-.92,0,2.79,2.79,0,0,1-1,.16c-.25,0-.35-.08-.14-.08.64,0,1.27-.28,1.22-.38a1.75,1.75,0,0,0-.61-.44,4.19,4.19,0,0,0-.62-.18c-.23,0-.74-.28-.92-.31a4.81,4.81,0,0,1-.77-.38c-.31-.16-.31-.43-.15-.26s.48.23.62.34.41.15.23-.05a2.64,2.64,0,0,1-.36-.64s.51.56.68.72a2.56,2.56,0,0,0,.64.4c.13.06.08-.17,0-.36s-.26-.4-.05-.33.48.71.62.75a4.51,4.51,0,0,1,.69.42c.3.17.18-.19.07-.37s-.24-.39-.31-.52l0-.07,0,.07c.06.09.16.21.26.13s.07-.18.07-.32a3.4,3.4,0,0,0-.31-.25,1.65,1.65,0,0,0-.61-.33c-.26,0-.11.06-.19.19s-.17.05-.24,0S22,.7,21.78.67A1.2,1.2,0,0,1,21.16.5c-.27-.19-1.07-.32-1.34,0s0,.17,0,.29-.16.14-.28.14-.49.08-.41.38a.53.53,0,0,0,.17.33c.1.1.25.09.37.17s0,.46.06.68.33.3.62.33.49.08.75.09.27,0,.27.18-.15.16-.21.27c-.14.3.26.23.42.18s.17-.1.3,0,.24.24.4.3a.62.62,0,0,0,.56-.08c.17-.11.55-.18.67,0s-.37.32-.29.59.64.1.81.1a1.09,1.09,0,0,0,.45-.07A6.91,6.91,0,0,0,25.28,4a1,1,0,0,0,.27-.66.88.88,0,0,0,0-.33,2.49,2.49,0,0,1-.26.11"/><path class="cls-1" d="M25.87,2.58a.47.47,0,0,0-.31,0c-.13.06-.1.19-.18.27s-.65,0-.85,0a.38.38,0,0,0-.43.37,1.78,1.78,0,0,0,.1.5c0,.15.17.27.15.43s-.27.18-.36.34a.58.58,0,0,0,.06.51.76.76,0,0,0,.38.41c.22.07.48,0,.7,0a.42.42,0,0,1,.33.4c0,.31-.39.43-.5.68A.39.39,0,0,0,25,7c.12.1.35.07.49.08s.51,0,.58.17-.07.35-.07.54.24.31.4.38a1.49,1.49,0,0,0,.72.1c.33,0,.65-.09,1-.1.14,0,.3,0,.4-.07s.22-.76.16-1.06a3.26,3.26,0,0,0-.25-.68c-.2-.48-.33-1-.57-1.46-.08-.15-.21-.27-.3-.41s-.12-.21-.19-.32-.18-.22-.25-.34A1.89,1.89,0,0,1,27,3.54a2.08,2.08,0,0,0-.27-.32c-.12-.14-.29-.1-.39-.25a1,1,0,0,0-.47-.39"/><path class="cls-1" d="M28.67,7a3.06,3.06,0,0,0-.25-.68c-.2-.48-.33-1-.57-1.46-.08-.15-.21-.27-.3-.41s-.12-.21-.19-.32-.13-.16-.19-.25c-.34.52-.73.81-1.11.39A5.29,5.29,0,0,0,24.2,3a.47.47,0,0,0-.1.25,1.78,1.78,0,0,0,.1.5c0,.15.17.27.15.43s-.27.18-.36.34a.58.58,0,0,0,.06.51.76.76,0,0,0,.38.41c.22.07.48,0,.7,0a.42.42,0,0,1,.33.4c0,.31-.39.43-.5.68A.39.39,0,0,0,25,7c.12.1.35.07.49.08s.51,0,.58.17-.07.35-.07.54.24.31.4.38a1.49,1.49,0,0,0,.72.1c.33,0,.65-.09,1-.1.14,0,.3,0,.4-.07s.22-.76.16-1.06"/><path class="cls-1" d="M24.18,3.66a1.61,1.61,0,0,0,0,.67c.12-.07.16-.13.16-.22s-.14-.31-.17-.45"/><path class="cls-1" d="M25.1,6.34s0,.17.29.19.48,0,.64.14.29.35,0,.36a3.46,3.46,0,0,1-1,0c-.15-.08-.25-.39.05-.66"/><path class="cls-1" d="M25.68,5.84s0,.2.28.39a.5.5,0,0,1,.18.55s.5-.09.48-.35-.16-.44-.94-.59"/><path class="cls-1" d="M26.24,3a1.24,1.24,0,0,0-.27,0c-.24.05-.17.25-.21.43a4.1,4.1,0,0,0-.16.53c0,.22.09.31.19.47a.38.38,0,0,1-.07.49.73.73,0,0,0-.31.48.47.47,0,0,0,.14.44c.29.21.73.18,1,.48s0,.3-.14.39L26,6.81a.76.76,0,0,0-.26.15c-.15.17,0,.38.19.43s.19.08.29.12a1,1,0,0,0,.29.07.81.81,0,0,1,.4.12c.07,0,.09.15.14.21.29.36.81.32,1.23.34a.5.5,0,0,1,.32.06c.2.18-.09.31-.16.43s.31.26.45.29a.87.87,0,0,0,.32.06A.68.68,0,0,0,29.47,9c.11-.06.21-.07.31-.12.29-.14.28-.44.32-.72a1.37,1.37,0,0,0,0-.45A2.21,2.21,0,0,0,30,7.22c0-.08-.09-.12-.13-.19a1.23,1.23,0,0,1-.17-.68,3.08,3.08,0,0,0,0-.6,1.43,1.43,0,0,0-.23-.52A.49.49,0,0,1,29.36,5c0-.11,0-.23,0-.34s-.12-.49-.32-.36a1.13,1.13,0,0,0-.29.45c-.07.11-.2.15-.25,0a5,5,0,0,1-.07-.56,1.82,1.82,0,0,0-.18-.51,3.08,3.08,0,0,0-.35-.44A.7.7,0,0,0,27.42,3c-.19,0-.09.34-.32.27a2.53,2.53,0,0,1-.27-.18A1.47,1.47,0,0,0,26.55,3a1.56,1.56,0,0,0-.31,0"/><path class="cls-1" d="M27.69,8.13a2.22,2.22,0,0,1-1,.08c-.66-.07-.81-.43-.57-.83s1.42.19,1.59.75"/><path class="cls-1" d="M2.45,17.46c-.1-.35-.33.37-.49.4s-.13.25-.14.41c0,.59.59.33.68,1.36.07.86.28-.93,0-2.17"/><path class="cls-1" d="M3.05,14.14a2.7,2.7,0,0,0-.47-.89c-.26-.3-.17.65-.17.77a2.12,2.12,0,0,1,.25,1.45c-.11,1.06.39-1.33.39-1.33"/><path class="cls-1" d="M4.11,11.53s-.23-.36-.4-.27-.14.25-.25.13-.19-.13-.19.14,0,.33.14.49a.88.88,0,0,1,.27.47,6,6,0,0,0,.43-1"/><path class="cls-1" d="M5.88,7.58a2.48,2.48,0,0,1,0,.8,1.47,1.47,0,0,1-.32.47,4.6,4.6,0,0,0,0-.88c-.05-.39.27-.39.27-.39"/><path class="cls-1" d="M4.16,11.88a1.33,1.33,0,0,0,.78-.07c.39-.17.22.26-.13.36a2.38,2.38,0,0,1-.83,0Z"/><path class="cls-1" d="M3.93,14.43a2.39,2.39,0,0,0-.91.5c-.21.29.18-1,.32-1.16s.34,0,.3.2-.27.2-.2.3.32.07.59,0-.1.14-.1.14"/><path class="cls-1" d="M7.48,6s-.35.14-.33.37a2.45,2.45,0,0,0,.06.44l-.33.41a7.28,7.28,0,0,1,0-1c0-.28.56-.58.86-.82S7.48,6,7.48,6"/><path class="cls-1" d="M4.89,25.13a3.08,3.08,0,0,0-.08.92c.06.24-.24.12-.36,0s-.25,0,0,.24.31.38.48.45a5.36,5.36,0,0,0,.71,1.48c0,.39,0,.72.74,1.52A6.49,6.49,0,0,0,8.29,31a1.74,1.74,0,0,0-.82-1.35,2.19,2.19,0,0,1-1.08-1c-.12-.2.05-.35-.2-.4s0-.22-.36-.36a5.21,5.21,0,0,1-.47-1.14c-.08-.32.14-.63.32-.64s-.45-.61-.79-1"/><path class="cls-1" d="M18.7,36s.74.59,1.09.83.67.44,1,.69a2.23,2.23,0,0,1,.75.74,1.14,1.14,0,0,0,.17.57.53.53,0,0,0,.4.22.43.43,0,0,1,.38.24,1.77,1.77,0,0,0,.25.47,1.2,1.2,0,0,0,.9,0,2.46,2.46,0,0,0,.63-.49c.11-.11.4-.11.59-.22s.4-.27.21-.49-.38-.19-.66-.17a4.47,4.47,0,0,1-1.61-.9,3.26,3.26,0,0,1-1-1.08l-3-.62Z"/><path class="cls-1" d="M21.58,38.23a1.14,1.14,0,0,0,.17.57.53.53,0,0,0,.4.22.43.43,0,0,1,.38.24,1.74,1.74,0,0,0,.23.45.69.69,0,0,1,.1-.39,1.77,1.77,0,0,1,.43-.37c.14-.11,0-.19-.08-.14s-.25.23-.37.34-.17-.07-.1-.18.31-.2.23-.21a.85.85,0,0,1-.39-.27A6.57,6.57,0,0,0,21.9,38c-.25-.21-.6-.4-.7-.51s.11-.13.26-.14l1.21,0a3.16,3.16,0,0,1-.84-.95l-2.92-.61-.11.06-.1.14s.74.59,1.09.83.67.44,1,.69a2.23,2.23,0,0,1,.75.74m.33.21a.22.22,0,0,1,.3,0,.23.23,0,0,1,.07.3.22.22,0,0,1-.31,0,.21.21,0,0,1-.06-.29"/><path class="cls-1" d="M16.61,36.08a4.84,4.84,0,0,1-.63.69c-.25.19-.55.3-.71.46s-.33.25-.38.37,0,.29-.08.38-.26.08-.41.08-.17.06-.3.17a1.22,1.22,0,0,1-.33.27c-.09,0-.18,0-.12.11s.27.31.14.43-.24.11-.35.18a.5.5,0,0,1-.37.08c-.13,0-.26.22-.34.35s0,.27-.26.33a1.58,1.58,0,0,1-1.06-.17,3.64,3.64,0,0,1-.64-.57c-.1-.11-.27-.08-.4-.11s-.12-.16,0-.3.21-.28.32-.27a.82.82,0,0,0,.56-.2c.19-.16.51-.4.55-.43s0-.34.15-.44a.88.88,0,0,1,.39-.14,2.2,2.2,0,0,0,.5-.05c.1,0,.19-.14.32-.19a.94.94,0,0,0,.41-.23,7,7,0,0,1,.53-.47Z"/><path class="cls-1" d="M14.07,36.41a7,7,0,0,0-.53.47l0,0c.14,0,.31,0,.41,0s.48-.13.64,0,.18.18.1.39-.27.29-.48.39a1.4,1.4,0,0,0-.5.36c-.06.1-.36.31-.45.47s-.21.28-.15.33.08,0,.18-.11a.34.34,0,0,1,.3-.13h.09s.08,0,.14-.06a1.22,1.22,0,0,0,.33-.27c.13-.11.16-.17.3-.17s.32,0,.41-.08,0-.25.08-.38.22-.22.38-.37.46-.27.71-.46a4.84,4.84,0,0,0,.63-.69ZM13.33,39a.2.2,0,0,1-.3-.06.15.15,0,0,0-.25,0c0,.08-.06.23-.22.12a1.53,1.53,0,0,0-.88-.23c-.31,0-.77,0-.55.07a8.41,8.41,0,0,1,1,.17,1,1,0,0,1,.64.58c.08-.13.2-.34.32-.33a.5.5,0,0,0,.37-.08c.11-.07.22-.07.35-.18s0-.26-.08-.36c-.13.07-.27.24-.38.29m-1.28-1a.7.7,0,0,0,.55-.09,1,1,0,0,0,.39-.59.14.14,0,0,0,0-.09l-.12.08a.6.6,0,0,1-.13.28.61.61,0,0,1-.56.25.32.32,0,0,1-.28-.3.31.31,0,0,0-.1.23.34.34,0,0,0,.25.23"/><path class="cls-1" d="M7.2,37.65a1.35,1.35,0,0,1-.38,0c-.27-.09-2.27-1.31-3.28-2a12.72,12.72,0,0,0-1.37-.78c-.26-.14-.51-.26-.79-.44a5.14,5.14,0,0,1-1-1.53,0,0,0,0,1,0,0,10.33,10.33,0,0,0,1.27-2.79.07.07,0,0,1,.05,0l2.37,0,.14-.92s0,0,0,0h.05c.61.3.86.59.78.89a.49.49,0,0,1,0,.11,2.91,2.91,0,0,0-.13,1,2.16,2.16,0,0,0,.39,1.34c.16.13,2,1.51,2.15,1.55l2.28-.18-.14-.13a0,0,0,0,1,0-.07,5,5,0,0,0,.69-1.22A5,5,0,0,0,10.68,31a1.27,1.27,0,0,1,0-.18.68.68,0,0,1,.56-.31h.11c.16.05,2.8,1,2.92,1.11s.94,1.11,1.1,1.3l.54,0A6.38,6.38,0,0,1,17,32.38a4.54,4.54,0,0,1,.57.09l.55-.35h0a0,0,0,0,1,0,0l.67.7,1.25,0A8.16,8.16,0,0,1,21,31.66c.15-.08,2.49-1.1,2.76-1.18l.12,0c.29,0,.76.24.78.39s.37,1.85.4,2l.5.62a.06.06,0,0,1,0,.06l-.13.17c.33,0,1.57.14,2.16.14a1.79,1.79,0,0,0,.29,0c.21-.08,1.67-1.27,2.24-1.74l.15-2a1,1,0,0,0-.19-.26.29.29,0,0,1-.07-.41c.08-.11.6-.6.62-.62h.06l.25.17s0,0,0,0l.15.76h2a.5.5,0,0,1,.41.15.44.44,0,0,1,.07.46l1.29,2.43a.07.07,0,0,1,0,0s-.84,1-1.09,1.24a1.54,1.54,0,0,1-.49.28,1.73,1.73,0,0,0-.27.15l-2.58,1.71a21.91,21.91,0,0,1-1.9,1.16,1,1,0,0,1-.29,0c-.68,0-2.43-.08-3.17-.18-.9-.13-2.45-.42-2.82-.53a4.15,4.15,0,0,0-.69-.09l-.77-.09c-.54-.1-1.6-.47-1.77-.52a6.27,6.27,0,0,1-1.29.75,7.24,7.24,0,0,1-1.15-.57l-3,.46a5.71,5.71,0,0,0-.61.16,17,17,0,0,1-2.26.53,29.77,29.77,0,0,1-3.45.28"/><path class="cls-1" d="M30.63,28.89l.26.17.15.8h2a.44.44,0,0,1,.37.13.38.38,0,0,1,.05.43l1.3,2.45s-.83,1-1.09,1.24a4.89,4.89,0,0,1-.75.42l-2.58,1.72c-.42.27-1.72,1.11-1.89,1.15h-.27c-.69,0-2.44-.08-3.16-.18-.88-.13-2.44-.42-2.81-.52s-.88-.09-1.47-.19A17.22,17.22,0,0,1,19,36a7,7,0,0,1-1.29.76h0a7.81,7.81,0,0,1-1.13-.57l-3,.46a28.59,28.59,0,0,1-2.87.69,29.1,29.1,0,0,1-3.45.28,2.41,2.41,0,0,1-.37,0c-.25-.09-2.24-1.3-3.27-2s-1.49-.8-2.16-1.22a5.44,5.44,0,0,1-.94-1.51,10.37,10.37,0,0,0,1.28-2.81l2.41,0,.14-1c.69.34.83.62.76.83a3,3,0,0,0-.17,1.17,2.26,2.26,0,0,0,.41,1.38C5.43,32.58,7.38,34,7.46,34l2.41-.19-.22-.2a4.93,4.93,0,0,0,.69-1.25,5.88,5.88,0,0,0,.42-1.55.65.65,0,0,1,.52-.28h.09c.22.06,2.8,1,2.91,1.1S15.38,33,15.38,33L16,33A7.1,7.1,0,0,1,17,32.43a5.19,5.19,0,0,1,.58.09l.56-.36.69.72,1.29,0A10.35,10.35,0,0,1,21,31.7c.14-.08,2.48-1.1,2.75-1.18h.1c.29,0,.72.23.73.34s.41,2,.41,2l.5.63-.19.24s1.56.15,2.26.15a1,1,0,0,0,.31,0c.26-.09,2.26-1.76,2.26-1.76l.16-2a1,1,0,0,0-.21-.28A.25.25,0,0,1,30,29.5c.08-.11.61-.61.61-.61m0-.1a.09.09,0,0,0-.06,0c-.06.05-.54.51-.63.63a.33.33,0,0,0,.08.47.61.61,0,0,1,.17.23L30,32.06a24.39,24.39,0,0,1-2.2,1.72.84.84,0,0,1-.28,0c-.55,0-1.65-.09-2.07-.13l.08-.1a.13.13,0,0,0,0-.12l-.49-.61c-.11-.54-.39-1.9-.4-2s-.53-.42-.83-.42h-.13c-.28.08-2.63,1.11-2.77,1.19a7.7,7.7,0,0,0-.84,1.18h-1.2l-.66-.7a.09.09,0,0,0-.07,0l-.05,0-.53.34a5.43,5.43,0,0,0-.56-.09,5.71,5.71,0,0,0-1.1.54h-.51c-.22-.27-1-1.21-1.09-1.29s-2.77-1.06-2.94-1.11l-.12,0a.74.74,0,0,0-.61.35,1.64,1.64,0,0,0,0,.18,5.39,5.39,0,0,1-.39,1.37,4.51,4.51,0,0,1-.68,1.21.09.09,0,0,0,0,.13l.06.06-2.16.17c-.21-.11-1.93-1.37-2.13-1.53A2.15,2.15,0,0,1,5,31.09a2.35,2.35,0,0,1,.13-1,.56.56,0,0,1,0-.12c.09-.32-.18-.63-.81-.95H4.25a.12.12,0,0,0,0,.07L4.07,30,1.74,30a.09.09,0,0,0-.09.07A10.86,10.86,0,0,1,.38,32.83a.09.09,0,0,0,0,.09,5.75,5.75,0,0,0,1,1.55c.29.18.54.31.8.44a11.85,11.85,0,0,1,1.36.78c1,.66,3,1.89,3.29,2a2,2,0,0,0,.4,0,32.26,32.26,0,0,0,3.46-.27,18.69,18.69,0,0,0,2.26-.53c.29-.08.51-.15.61-.16l3-.46a6.65,6.65,0,0,0,1.14.56h0a5.39,5.39,0,0,0,1.3-.74,14.7,14.7,0,0,0,1.75.51c.28,0,.54.07.77.09a3.16,3.16,0,0,1,.69.1c.37.1,1.92.4,2.82.52a31.78,31.78,0,0,0,3.18.18h.3a20.45,20.45,0,0,0,1.91-1.17c.42-.27,2.38-1.57,2.58-1.72a1.69,1.69,0,0,1,.27-.13,1.85,1.85,0,0,0,.5-.29c.25-.24,1.06-1.21,1.1-1.25a.09.09,0,0,0,0-.1L33.56,30.4a.48.48,0,0,0-.08-.48.55.55,0,0,0-.45-.17H31.12L31,29l0-.06-.25-.17-.06,0"/><path class="cls-1" d="M20.61,32.81c.15-.07,3.06-1.69,3.27-1.83s.31-.23-.08-.19a6.75,6.75,0,0,0-1.38.53c-.48.2-1.18.54-1.34.63a3,3,0,0,0-.51.69c-.12.18,0,.22,0,.17"/><path class="cls-1" d="M4.88,29.79c0-.17-.45-.42-.62-.51l-.12.77c.47,0,.81-.06.74-.26"/><path class="cls-1" d="M2.19,30.32c-.19,0-.31.14,0,.28a16.39,16.39,0,0,1,3,1.7,3,3,0,0,1-.23-1.12,2.67,2.67,0,0,1,.09-.9l-2.83,0"/><path class="cls-1" d="M33,30.28c.31-.15.06-.15-.23-.16s-1.86,0-2.46,0l0,0-.16,2-.12.1A8.74,8.74,0,0,1,31.63,31c.64-.35,1-.58,1.33-.72"/><path class="cls-1" d="M11.19,30.87A20.9,20.9,0,0,0,14,32.37a4.87,4.87,0,0,0,1.24.38c-.29-.35-.84-1-.92-1.08s-2.22-.86-2.78-1.06c-.33,0-.43.14-.31.26"/><path class="cls-1" d="M17.64,33.75a2.33,2.33,0,0,0,.24.63.9.9,0,0,1,0,1.18c-.14.1-.39.28-.55.25a.62.62,0,0,0-.48.08c-.13.1-.62.15-.81.24s-.6.17-1.13.3l1.64-.26a7.81,7.81,0,0,0,1.13.57A6.66,6.66,0,0,0,19,36L19,36a1.12,1.12,0,0,1,.17-.19c.21-.16.77-.48.87-.58a.56.56,0,0,0,.19-.49c0-.31.09-.47-.1-.7s-1.53-1.43-1.53-1.43a17.6,17.6,0,0,0,1.25,1.52.6.6,0,0,1,.08.58c0,.13-.19.16-.35.1s-.23,0-.23,0l-.16.36c-.06.15-.18.39-.29.41s-.18-.07-.32.06a6.25,6.25,0,0,1-.68.56.47.47,0,0,1-.51-.16c.49-.17.58-.24.66-.35a5.25,5.25,0,0,1,.34-.42c.13-.11.06-.46-.09-.71s-.16-.39-.3-.64a9.85,9.85,0,0,0-.44-1.06c-.19-.21-.73-.15-1.28-.13l-.21.11a2.88,2.88,0,0,1,1.19.07c.18.1.32.59.35.8"/><path class="cls-1" d="M31,29.85l-.14-.72,0,0a3.37,3.37,0,0,0-.44.35c-.17.17-.08.44.6.39"/><path class="cls-1" d="M2.43,34.15h0L2.16,34a.47.47,0,0,1-.25-.38L1.85,33v-.56l0,0h0a1.06,1.06,0,0,0,.38.1.39.39,0,0,0,.32-.16.32.32,0,0,0,0-.25.39.39,0,0,0-.18-.24l-.17-.09L1.47,33c-.09.12-.19.27-.11.38a0,0,0,0,1,0,0l0,0h0l-.53-.35s0,0,0,0l0,0h0c.11,0,.2-.14.27-.24l.75-1.12c.08-.12.18-.27.1-.38s0,0,0,0a.05.05,0,0,1,.05,0H2l.66.44a.83.83,0,0,1,.35.43.49.49,0,0,1-.07.44.6.6,0,0,1-.53.26.83.83,0,0,1-.22,0l.06.7a2.48,2.48,0,0,0,.18.67s0,0,0,0h0"/><path class="cls-1" d="M2,31.21l.66.44c.36.24.44.57.27.82a.57.57,0,0,1-.5.24.75.75,0,0,1-.26-.05l.06.77a2.3,2.3,0,0,0,.19.68l-.25-.17A.42.42,0,0,1,2,33.59L1.89,33v-.56a.9.9,0,0,0,.39.1.4.4,0,0,0,.35-.17.39.39,0,0,0-.15-.55l-.21-.1L1.46,32.9c-.08.13-.24.32-.13.46h0L.8,33h0c.15,0,.25-.19.33-.3l.69-1c.09-.13.24-.32.13-.46H2m0-.07a.07.07,0,0,0-.06,0h0a.11.11,0,0,0,0,.08c.06.08,0,.2-.1.33l0,.05-.69,1,0,0c-.06.09-.15.22-.24.22h0a.09.09,0,0,0-.07,0s0,.09,0,.11l.52.36h.05a.07.07,0,0,0,.06,0,.07.07,0,0,0,0-.09c-.06-.08,0-.2.11-.34l0,0,.3-.45V33l.05.65a.53.53,0,0,0,.26.4l.26.17,0,0,0,0a.1.1,0,0,0,0-.09,1.92,1.92,0,0,1-.18-.66l-.06-.65.18,0A.64.64,0,0,0,3,32.51.53.53,0,0,0,3.08,32a.83.83,0,0,0-.37-.45l-.66-.44H2m-.07,1.19.37-.56a.61.61,0,0,1,.14.07.34.34,0,0,1,.17.22.29.29,0,0,1-.05.22.31.31,0,0,1-.28.14.9.9,0,0,1-.35-.09"/><path class="cls-1" d="M3.6,34.9h0l-1.17-.74v0a.05.05,0,0,1,0,0h0c.12,0,.21-.14.27-.25l.72-1.13c.08-.12.18-.27.1-.38s0,0,0,0l0,0h0l.9.57a1,1,0,0,0,.23.13l0,0s0,0,0,0l-.06.38,0,0h0a.05.05,0,0,1,0,0c0-.11-.31-.29-.44-.37l-.07,0a2.2,2.2,0,0,0-.26-.15l-.3.46.3.2a.51.51,0,0,0,.12.05H4a.06.06,0,0,1,0,.06l-.19.29,0,0h0a0,0,0,0,1,0,0c0-.08-.09-.14-.17-.19l-.18-.12-.39.6.31.24a.77.77,0,0,0,.48.16H4l0,0s0,0,0,0l-.36.28h0"/><path class="cls-1" d="M3.6,32.29l.9.56a.89.89,0,0,0,.25.14h0l-.06.37h0c0-.16-.39-.36-.52-.44a2.19,2.19,0,0,0-.3-.16l-.33.52.34.21a.31.31,0,0,0,.13.06H4l-.19.3h0c0-.11-.11-.18-.2-.24l-.21-.13L3,34.15l.34.26a.82.82,0,0,0,.5.17H4l-.36.28-1.17-.73h0c.15,0,.25-.19.33-.31l.67-1.05c.08-.13.23-.32.12-.47h0m0-.08a.07.07,0,0,0-.06,0h0a.09.09,0,0,0,0,.09c.06.08,0,.2-.1.34l0,0-.67,1.05,0,0c-.06.1-.14.24-.24.24h0a.06.06,0,0,0-.06,0h0a.13.13,0,0,0,0,.06.09.09,0,0,0,0,0l1.17.74h0l0,0L4,34.64a.09.09,0,0,0,0-.07.09.09,0,0,0,0-.06H3.83a.78.78,0,0,1-.46-.16l-.28-.22.35-.54.14.09h0c.07,0,.16.1.16.16s0,0,0,.07h0l0,0h0a.05.05,0,0,0,.05,0l.19-.3a.08.08,0,0,0,0-.1h0l0,0a.21.21,0,0,1-.1,0l-.27-.18.25-.4.23.13.07,0c.11.07.4.25.42.35a.09.09,0,0,0,0,0h.08l0,0L4.84,33a.09.09,0,0,0,0-.08h0l-.21-.12h0l-.9-.57h0"/><path class="cls-1" d="M4.37,35.42h0l-.57-.33,0,0a0,0,0,0,1,0,0,.05.05,0,0,1,0,0h0c.12,0,.21-.15.27-.26l.69-1.15c.07-.12.17-.28.08-.38s0,0,0,0l0,0H5l.69.41A1,1,0,0,1,6,34a.54.54,0,0,1,0,.51.64.64,0,0,1-.56.3A.88.88,0,0,1,5,34.67a.71.71,0,0,1-.2-.18.06.06,0,0,1,0,0l0,0h0a.84.84,0,0,0,.34.08.41.41,0,0,0,.38-.2.37.37,0,0,0-.18-.54.91.91,0,0,0-.17-.09L4.48,35c-.1.16-.15.25-.07.4s0,0,0,0l0,0h0"/><path class="cls-1" d="M4.93,33.17l.69.42c.37.22.54.56.35.88a.56.56,0,0,1-.52.28A.81.81,0,0,1,5,34.63a.46.46,0,0,1-.18-.16.7.7,0,0,0,.35.09.5.5,0,0,0,.42-.22.4.4,0,0,0-.2-.59,1.06,1.06,0,0,0-.21-.11l-.76,1.29c-.1.15-.17.27-.07.44h0L3.81,35h0c.16,0,.26-.2.33-.32l.64-1.07c.07-.13.21-.32.1-.47h0m0-.07h0a.1.1,0,0,0,0,0h0s0,.06,0,.08,0,.24-.09.34l0,0-.64,1.07,0,0C4,34.82,4,35,3.85,35h0a.08.08,0,0,0-.07,0,.06.06,0,0,0,0,.06.05.05,0,0,0,0,0l.57.34h0a.08.08,0,0,0,.06,0,.11.11,0,0,0,0-.08c-.08-.13,0-.2.06-.37h0l.27-.45h0A.78.78,0,0,0,5,34.7a1,1,0,0,0,.46.13A.66.66,0,0,0,6,34.51a.59.59,0,0,0,0-.55,1.09,1.09,0,0,0-.42-.44L5,33.11h0m-.08,1.3.39-.66.14.07a.33.33,0,0,1,.17.49.39.39,0,0,1-.35.18.72.72,0,0,1-.32-.08h0"/><path class="cls-1" d="M6.33,36.56l0,0,0-.06A.66.66,0,0,1,6.09,36l0-1.44v-.08A.93.93,0,0,0,6.07,34a0,0,0,0,1,0,0l0,0h0l.45.18,0,0v0l0,0a1.06,1.06,0,0,0,0,.27l0,1.46.81-.88c.19-.21.31-.36.19-.48s0,0,0,0l0,0h0l.46.18,0,0a.06.06,0,0,1,0,0L6.37,36.55h0"/><path class="cls-1" d="M6.1,34l.45.17,0,0a3.16,3.16,0,0,0,0,.32l0,1.53.86-.94c.17-.18.37-.39.21-.54h0l.45.18L6.34,36.52c-.16-.23-.22-.28-.21-.56l0-1.44A1,1,0,0,0,6.1,34h0m0-.08h0s0,0,0,0H6A.06.06,0,0,0,6,34a.73.73,0,0,1,.06.42v.08l0,1.44a.68.68,0,0,0,.18.54l0,.06a.1.1,0,0,0,0,0h0a.05.05,0,0,0,0,0l1.66-1.79a.08.08,0,0,0,0-.07A.12.12,0,0,0,8,34.66l-.46-.18H7.5s0,0,0,0h0a.08.08,0,0,0,0,.08c.09.09,0,.23-.2.42l0,0-.72.79,0-1.33v0a1.1,1.1,0,0,1,0-.26l0,0a.06.06,0,0,0,0-.06.1.1,0,0,0,0-.05l-.45-.17h0"/><path class="cls-1" d="M8.11,36.88a0,0,0,0,1,0,0h0s0,0,0,0,.12-.24.11-.38l0-1.35c0-.14,0-.32-.13-.36s0,0,0,0v0H8l.78,0h0c.43,0,.69.18.7.49a.47.47,0,0,1-.25.43.62.62,0,0,1,.49.58.7.7,0,0,1-.4.63,1.53,1.53,0,0,1-.7.13l-.6,0m.77-.34h0a.46.46,0,0,0,.35-.13.34.34,0,0,0,.1-.26c0-.29-.28-.39-.51-.39H8.79l-.19,0,0,.74Zm-.29-1h.07A.76.76,0,0,0,9,35.41a.24.24,0,0,0,.15-.25.3.3,0,0,0-.32-.28H8.76l-.19,0Z"/><path class="cls-1" d="M8.87,34.64c.41,0,.65.17.66.46a.46.46,0,0,1-.32.44.6.6,0,0,1,.56.57.66.66,0,0,1-.38.59,1.68,1.68,0,0,1-.73.12l-.55,0h0c.16-.07.13-.31.13-.46l0-1.25c0-.15,0-.39-.16-.45H8l.78,0h0m-.32.88h.11c.22,0,.52-.09.51-.36a.33.33,0,0,0-.36-.32H8.75l-.22,0,0,.64m.37,1.06c.26,0,.49-.14.48-.43s-.27-.43-.54-.43H8.79l-.23,0,0,.82.29,0h.05m-.05-2h0l-.78,0a.08.08,0,0,0-.08.08s0,.07.06.07.1.17.1.33v0l0,1.25v.05c0,.16,0,.3-.09.34a.08.08,0,0,0-.05.07c0,.05,0,.09.08.09h0l.55,0h.05a1.65,1.65,0,0,0,.72-.14.73.73,0,0,0,.42-.66.65.65,0,0,0-.45-.59.49.49,0,0,0,.21-.42c0-.32-.3-.53-.74-.53m-.26.38.15,0h.05a.27.27,0,0,1,.29.24.21.21,0,0,1-.14.21.56.56,0,0,1-.3.07h0Zm0,.87h.22c.21,0,.46.09.47.35a.36.36,0,0,1-.08.24.51.51,0,0,1-.33.12H8.66Z"/><path class="cls-1" d="M9.87,36.76a0,0,0,0,1,0,0h0s0,0,0,0,.1-.24.08-.39L9.81,35c0-.15,0-.33-.16-.36s0,0,0,0,0,0,0,0l.78-.08h.14c.37,0,.61.17.64.45a.48.48,0,0,1-.22.45.6.6,0,0,1,.52.55.69.69,0,0,1-.35.65,1.56,1.56,0,0,1-.69.17l-.61.06m.49-.39h.26a.51.51,0,0,0,.38-.14.32.32,0,0,0,.08-.28c0-.27-.26-.36-.48-.36h-.11l-.2,0Zm-.1-1h.07c.09,0,.49-.06.46-.35a.3.3,0,0,0-.32-.26h-.08l-.18,0Z"/><path class="cls-1" d="M10.58,34.47c.35,0,.57.16.6.42a.47.47,0,0,1-.29.46.61.61,0,0,1,.6.53.69.69,0,0,1-.34.62,1.66,1.66,0,0,1-.73.17l-.55,0h0c.16-.08.12-.31.1-.47L9.85,35c0-.15,0-.39-.19-.44h0l.79-.07h.13m-.35.91h.11c.21,0,.51-.12.49-.39a.34.34,0,0,0-.36-.3h-.08l-.22,0,.06.65m.1,1h.29c.27,0,.53-.15.5-.46a.46.46,0,0,0-.52-.4h-.12l-.23,0,.08.81m.25-2h-.14l-.78.08a.08.08,0,0,0-.07.08.08.08,0,0,0,.06.08c.09,0,.11.16.12.32v0l.12,1.24v0c0,.16,0,.3-.06.35a.07.07,0,0,0,0,.07h0a.05.05,0,0,0,0,.05l0,0h0l.55-.06h.05a1.62,1.62,0,0,0,.71-.18.73.73,0,0,0,.37-.69.65.65,0,0,0-.48-.56.52.52,0,0,0,.18-.43c0-.3-.29-.48-.68-.48m-.33.39.15,0h.07a.26.26,0,0,1,.28.22c0,.26-.34.31-.42.31h0Zm.08.87.16,0h.11c.2,0,.42.08.45.32a.31.31,0,0,1-.08.25.43.43,0,0,1-.35.13H10.4Z"/><path class="cls-1" d="M11.65,36.43a0,0,0,0,1,0,0h0a.08.08,0,0,1,0,0c.12-.06.09-.25.07-.39l-.21-1.32c0-.14-.05-.32-.19-.35a0,0,0,0,1,0,0s0,0,0,0l.63-.1h0l0,0s0,0,0,0-.08.24-.06.38L12.12,36l.42,0a.75.75,0,0,0,.52-.28h.06s0,0,0,0l-.1.47s0,0,0,0l-1.35.21"/><path class="cls-1" d="M11.93,34.14h0c-.15.09-.09.33-.07.48l.23,1.42.45,0a.81.81,0,0,0,.55-.29h0l-.1.46-1.35.22v0c.16-.08.1-.32.08-.47l-.2-1.23c0-.15,0-.39-.22-.43h0l.62-.1m0-.07h0l-.62.1a.08.08,0,0,0-.07.08v0a.09.09,0,0,0,.06.06c.1,0,.13.15.16.32v0l.2,1.24v0c0,.16,0,.3,0,.35a.07.07,0,0,0,0,.08h0a.07.07,0,0,0,.07.06h0L13,36.25s.05,0,.06-.06l.1-.46a.07.07,0,0,0,0-.07l-.05,0h0l0,0a.74.74,0,0,1-.5.27l-.38,0-.21-1.35v0c0-.16,0-.3,0-.35a.09.09,0,0,0,0-.08.09.09,0,0,0,0,0l-.05,0"/><path class="cls-1" d="M13.26,36.12s0,0,0,0h0a.08.08,0,0,1,0,0c.12-.06.09-.25.06-.39l-.21-1.32c0-.14-.05-.32-.18-.35a0,0,0,0,1,0,0s0-.05,0-.05l.63-.1h0a0,0,0,0,1,0,0s0,0,0,.05-.09.25-.06.39l.21,1.32c0,.13,0,.32.18.35l0,0a0,0,0,0,1,0,0l0,0-.63.1"/><path class="cls-1" d="M13.54,33.83h0c-.16.09-.1.33-.07.48l.19,1.23c0,.15.05.39.22.43h0l-.62.11v0c.15-.08.09-.32.07-.47l-.2-1.23c0-.15,0-.39-.21-.43h0l.63-.1m0-.07h0l-.62.1a.08.08,0,0,0-.06.09.11.11,0,0,0,.06.07c.1,0,.13.15.15.31v.05l.2,1.24v0c0,.16.05.3,0,.35a.06.06,0,0,0,0,.08.08.08,0,0,0,.07.07h0l.62-.1a.05.05,0,0,0,0,0A.07.07,0,0,0,14,36a.11.11,0,0,0-.06-.07c-.1,0-.13-.16-.15-.32v0l-.2-1.23v-.05c0-.15,0-.3.05-.35a.08.08,0,0,0,0-.08h0a.05.05,0,0,0,0,0h0"/><path class="cls-1" d="M14.93,35.8a1.11,1.11,0,0,1-1.17-1,1.12,1.12,0,0,1,.2-.9,1.22,1.22,0,0,1,.8-.46l.34,0h.27s0,0,0,0l.06.38s0,0,0,0h0a1,1,0,0,0-.45-.1H14.8a.74.74,0,0,0-.49.3.78.78,0,0,0-.11.59.83.83,0,0,0,.8.75h.13a1.32,1.32,0,0,0,.64-.31h.07s0,0,0,0l-.11.4a0,0,0,0,1,0,0,1.14,1.14,0,0,1-.49.19,1.51,1.51,0,0,1-.3,0"/><path class="cls-1" d="M15.1,33.48h.27l.06.37a1.28,1.28,0,0,0-.47-.1h-.17a.76.76,0,0,0-.63.93.88.88,0,0,0,.84.79h.14a1.51,1.51,0,0,0,.66-.32h0l-.11.4a1.17,1.17,0,0,1-.48.18,1.43,1.43,0,0,1-.29,0,1.08,1.08,0,0,1-1.14-1,1.1,1.1,0,0,1,1-1.31,1.94,1.94,0,0,1,.34,0m0-.08h0a1.9,1.9,0,0,0-.35,0,1.2,1.2,0,0,0-.82.47,1.13,1.13,0,0,0-.21.92,1.15,1.15,0,0,0,1.21,1l.31,0a1.46,1.46,0,0,0,.51-.19l0-.05.1-.4a.06.06,0,0,0,0-.07.05.05,0,0,0,0,0h0l0,0a1.37,1.37,0,0,1-.63.3H15a.85.85,0,0,1-.66-1.28.7.7,0,0,1,.47-.28H15a1.19,1.19,0,0,1,.44.09h0l.05,0a.06.06,0,0,0,0-.07l-.06-.37a.07.07,0,0,0-.07-.07H15.1"/><path class="cls-1" d="M15.88,35.72a0,0,0,0,1,0,0h0a.05.05,0,0,1,0,0,.65.65,0,0,0,.22-.44v-.05l.32-1.45c0-.09,0-.18,0-.22s0,0-.07,0a0,0,0,0,1,0,0,0,0,0,0,1,0,0l.52-.08s0,0,0,0l1,1.61a.68.68,0,0,0,.34.35,0,0,0,0,1,0,0s0,.05,0,.05l-.68.11h0s0,0,0,0,0,0,0-.05.11-.07,0-.25l-.26-.45-.77.12-.09.47a.5.5,0,0,0,0,.2s0,.06.11.08a0,0,0,0,1,0,0,0,0,0,0,1,0,0l0,0-.61.1m.67-1.26.54-.09-.38-.64Z"/><path class="cls-1" d="M16.87,33.32l.95,1.56a.77.77,0,0,0,.39.42h0l-.67.1h0c.15-.09.12-.13,0-.34l-.25-.43-.82.13-.1.49c0,.19,0,.29.12.32h0l-.6.1h0c.18-.12.2-.32.24-.52l.33-1.45c0-.12.07-.27-.1-.29h0l.52-.08m-.36,1.18.64-.1-.45-.77-.19.87m.36-1.26h0l-.52.08a.08.08,0,0,0-.06.09s0,.07.06.07l.05,0s0,.11,0,.17v0l-.33,1.45v0a.67.67,0,0,1-.2.42.06.06,0,0,0,0,.07h0a.08.08,0,0,0,.07.07h0l.6-.09s0,0,.05,0a.13.13,0,0,0,0-.06h0a.09.09,0,0,0-.06-.06c-.08,0-.11,0-.06-.24l.08-.43.72-.12.23.39,0,0a.74.74,0,0,1,.08.16l-.07.05a.08.08,0,0,0,0,.08.07.07,0,0,0,0,0l.05,0h0l.67-.11a.09.09,0,0,0,.06-.09s0-.06-.06-.07-.23-.18-.32-.33l0,0-.95-1.56a.06.06,0,0,0-.06,0m-.27,1.17.13-.58.3.51Z"/><path class="cls-1" d="M20.4,35.76a0,0,0,0,1,0,0s0,0,0,0,.15-.22.18-.36L20.79,34c0-.14.05-.32-.07-.39s0,0,0,0a0,0,0,0,1,0,0l.62.1s0,0,0,0a.05.05,0,0,1,0,0c-.13,0-.16.21-.18.35L21,35.39c0,.13-.05.32.06.39s0,0,0,0a0,0,0,0,1,0,0l-.62-.1"/><path class="cls-1" d="M20.74,33.57l.63.1h0c-.17,0-.19.28-.21.43L21,35.34c0,.15-.08.38.07.47h0l-.62-.1h0c.18,0,.2-.28.22-.42l.19-1.24c0-.14.09-.38-.07-.47h0m0-.07a.07.07,0,0,0-.07.06h0a.07.07,0,0,0,0,.08c.08.05.07.18,0,.34v0l-.2,1.24v0c0,.16-.05.3-.15.32a.06.06,0,0,0-.06.06.09.09,0,0,0,.06.1l.62.09h0a.08.08,0,0,0,.08-.07s0-.07,0-.08-.07-.2,0-.35v0l.19-1.23v0c0-.15.05-.3.15-.32s.05,0,.06-.06a.1.1,0,0,0-.06-.1l-.62-.09h0"/><path class="cls-1" d="M21.88,36h0a0,0,0,0,1,0,0s0,0,0,0,.15-.22.17-.36l.18-1.47-.25,0h-.09a.44.44,0,0,0-.29.09h0l0,0v0l.17-.38,0,0h0l.08,0h0l1.3.17h.16l0,0s0,0,0,0l-.15.38s0,0,0,0h0l0,0c0-.08-.09-.12-.24-.14l-.26,0-.18,1.47c0,.18,0,.29.1.4l0,0s0,0,0,0l0,0L21.88,36"/><path class="cls-1" d="M21.73,33.77h0l.12,0,1.31.16h.17l-.16.38h0c0-.12-.16-.16-.26-.17l-.3,0-.19,1.5c0,.19,0,.32.12.44h0L21.89,36h0c.17,0,.18-.29.2-.43l.19-1.47-.29,0h-.1a.49.49,0,0,0-.31.09h0l.16-.38m0-.08a.1.1,0,0,0-.08.05l-.16.37a.08.08,0,0,0,0,.07s0,0,.06,0h.06a.49.49,0,0,1,.27-.08H22l.21,0L22,35.56v0c0,.16,0,.3-.14.32a.11.11,0,0,0-.06.07h0a.08.08,0,0,0,0,0,.05.05,0,0,0,.05,0l.65.08h0s.07,0,.07-.06h0a.06.06,0,0,0,0-.07c-.12-.09-.12-.17-.09-.36h0l.18-1.42.22,0c.16,0,.19.07.2.11s0,.06.06.06h0s.07,0,.08,0l.16-.38a.17.17,0,0,0,0-.07.05.05,0,0,0,0,0h-.17l-1.3-.17h0l-.07,0h0"/><path class="cls-1" d="M24.63,36.53s0,0,0,0,0,0,0,0,.12,0,.07-.24l-.12-.51-.78-.1-.22.42a.8.8,0,0,0-.07.2s0,.06.08.1,0,0,0,0a0,0,0,0,1,0,0L23,36.32s0,0,0,0a.05.05,0,0,1,0,0c.17-.06.24-.2.33-.36l0-.05.73-1.3c0-.08.08-.15.06-.2s0,0-.06-.06,0,0,0,0a0,0,0,0,1,0,0l.52.07s0,0,0,0l.49,1.82a.64.64,0,0,0,.23.44.05.05,0,0,1,0,0s0,0,0,0h0l-.68-.09m-.14-1.16-.18-.72L24,35.3Z"/><path class="cls-1" d="M24.06,34.23l.52.06.47,1.77a.79.79,0,0,0,.26.51h0l-.67-.08h0c.17-.06.15-.09.09-.34l-.12-.48-.83-.11-.23.45c-.09.17-.13.26,0,.34h0l-.6-.07h0c.2-.07.28-.25.38-.43l.72-1.3c.06-.11.14-.24,0-.31h0m.48,1.18-.21-.86-.43.78.64.08m-.48-1.26a.08.08,0,0,0-.08.07h0a.1.1,0,0,0,.05.08l0,0s0,.11-.06.16h0l-.72,1.3,0,0c-.09.16-.16.29-.32.35s0,0,0,.06a.07.07,0,0,0,0,.06.09.09,0,0,0,.05,0l.6.08h0a.08.08,0,0,0,.08-.07h0a.07.07,0,0,0,0-.07c-.07,0-.09,0,0-.25l.2-.39.73.09.1.43v0a.44.44,0,0,1,0,.16l-.07,0s-.05,0-.06.06h0a.08.08,0,0,0,.07.08l.67.09h0a.08.08,0,0,0,.08-.07s0-.07,0-.08a.68.68,0,0,1-.22-.42v0l-.47-1.78a.06.06,0,0,0-.06-.05l-.52-.07h0m0,1.12.28-.52.14.57Z"/><path class="cls-1" d="M25.48,36.66s0,0,0,0a.05.05,0,0,1,0,0c.13,0,.14-.23.14-.36l.08-1.34c0-.14,0-.33-.1-.38s0,0,0,0a0,0,0,0,1,0,0l.63,0a0,0,0,0,1,0,0s0,0,0,0a.08.08,0,0,1,0,.05c-.13,0-.14.22-.15.36L26,36.35l.41,0h.09a.79.79,0,0,0,.48-.16h0l0,0s0,0,0,0l-.2.42,0,0-1.37-.08"/><path class="cls-1" d="M25.61,34.44l.64,0h0c-.18,0-.17.3-.18.45L26,36.38l.45.06h.09a.8.8,0,0,0,.5-.17h0l-.19.43-1.36-.08h0c.17,0,.16-.3.17-.45l.08-1.24c0-.15,0-.39-.13-.47h0m0-.07a.08.08,0,0,0-.07.07h0a.07.07,0,0,0,0,.07c.1,0,.09.18.08.35v.05l-.07,1.24v0c0,.16,0,.31-.12.34a.06.06,0,0,0-.06.06.08.08,0,0,0,.07.09l1.36.08h0a.06.06,0,0,0,.06,0l.2-.43a.09.09,0,0,0,0-.07.1.1,0,0,0-.07,0h0l0,0a.8.8,0,0,1-.46.16h-.09l-.37,0,.08-1.37v0c0-.16,0-.3.12-.33a.06.06,0,0,0,.05-.06s0,0,0-.06a.05.05,0,0,0-.05,0l-.63,0h0"/><path class="cls-1" d="M27.35,36.73a0,0,0,0,1,0,0l0,0c.13,0,.13-.23.13-.37V34.93c0-.14,0-.32-.12-.37s0,0,0,0a.06.06,0,0,1,0,0H28a0,0,0,0,1,0,0s0,0,0,0-.12.24-.12.38v1.34c0,.14,0,.32.12.37a.05.05,0,0,1,0,0s0,0,0,0h-.63"/><path class="cls-1" d="M27.35,34.52H28c-.16.06-.15.31-.15.46v1.24c0,.15,0,.39.15.46h-.63c.16,0,.14-.3.14-.45V35c0-.15,0-.39-.15-.45h0m0-.08-.05,0a.14.14,0,0,0,0,.06h0a.08.08,0,0,0,0,.07c.09,0,.09.17.09.33v1.35c0,.16,0,.3-.1.33s-.05,0-.05.07a.08.08,0,0,0,.08.09H28a.07.07,0,0,0,.07-.07h0a.08.08,0,0,0-.05-.07c-.09,0-.1-.18-.09-.34V34.94c0-.16,0-.31.1-.34a.08.08,0,0,0,0-.07s0-.09-.08-.09Z"/><path class="cls-1" d="M28.69,36.77l0,0h0a0,0,0,0,1,0,0,.64.64,0,0,0,0-.49v-.05l-.32-1.45c0-.13-.06-.21-.13-.21h-.05s0,0,0,0a0,0,0,0,1,0,0,0,0,0,0,1,0,0l.43-.29h0l1.58,1a.79.79,0,0,0,.4.17h.1s0,0,0,0,0,0,0,0l-.56.39H30a.11.11,0,0,1,0,0c.07-.11.07-.12-.11-.24l-.42-.29-.65.44.12.46c0,.17.07.23.14.23h.1a.06.06,0,0,1,0,0s0,0,0,0l-.5.35h0m.08-1.44.44-.3-.61-.42Z"/><path class="cls-1" d="M28.56,34.17l1.53,1a.87.87,0,0,0,.47.21h.07l-.56.39h0c.09-.15.05-.17-.16-.31l-.41-.28-.69.47.12.48c0,.16.08.25.18.25h.08l-.51.35h0a.8.8,0,0,0,0-.57l-.33-1.45c0-.11-.05-.24-.16-.24h-.06l.43-.3m.18,1.23.54-.37-.74-.5.2.87m-.18-1.31,0,0-.43.29a.08.08,0,0,0,0,.11h0a.09.09,0,0,0,.07,0h.05s.06.05.08.16v0l.32,1.45,0,0a.61.61,0,0,1,0,.46.08.08,0,0,0,0,.08.07.07,0,0,0,.07,0h0l.5-.34a.09.09,0,0,0,0-.11h0a.06.06,0,0,0-.06,0h-.07s-.06,0-.1-.2l-.11-.43.6-.41.37.25,0,0c.15.1.15.1.1.18a.11.11,0,0,0,0,.08.12.12,0,0,0,.08,0h0l.56-.39a.05.05,0,0,0,0,0,.06.06,0,0,0,0-.06.08.08,0,0,0-.07,0h-.06a.74.74,0,0,1-.38-.16l-.05,0-1.53-1,0,0m.23,1.18-.13-.57.49.33Z"/><path class="cls-1" d="M30.68,35.41l0,0h0a.08.08,0,0,1,0,0c.07-.17,0-.26-.1-.41l-.79-1.06c-.1-.13-.16-.22-.31-.22h-.05l0,0a.06.06,0,0,1,0-.06l.39-.29h.06l.06,0,.08,0,1.78.48-.68-.92c-.1-.14-.17-.22-.3-.22h-.09v0s0,0,0,0l.47-.34h.05s0,0,0,0c-.07.16,0,.25.11.4l1.11,1.49s0,0,0,0,0,0,0,0a1,1,0,0,1-.28,0,1.34,1.34,0,0,1-.36-.06l-1.66-.46.7.95c.1.13.16.22.31.22h.08a.06.06,0,0,1,0,.06l-.48.35h0"/><path class="cls-1" d="M31.15,32.31h0c-.08.18,0,.28.11.43l1.11,1.49a.71.71,0,0,1-.27,0,1.22,1.22,0,0,1-.35-.06L30,33.75l.77,1c.1.14.17.24.34.24h0l-.47.35h0c.08-.19,0-.29-.11-.44l-.79-1.06c-.1-.13-.18-.24-.34-.24h-.05l.38-.29h0a.15.15,0,0,0,.09,0l.07,0,1.89.5-.75-1c-.1-.13-.17-.23-.33-.23h-.06l.46-.34m0-.08,0,0-.47.34s0,0,0,0a.07.07,0,0,0,0,.06.08.08,0,0,0,.06,0h.06c.11,0,.16.07.26.2l.63.84L30,33.32l-.07,0s-.05,0-.07,0h-.09l-.39.29a.09.09,0,0,0,0,.11.11.11,0,0,0,.08,0h0c.12,0,.18.07.28.21L30.51,35c.11.15.16.22.1.36a.08.08,0,0,0,0,.08h0l.05,0h0l.05,0,.47-.35a.07.07,0,0,0,0-.1.08.08,0,0,0-.07,0h0c-.12,0-.17-.06-.27-.2h0l-.63-.85,1.56.42a1.23,1.23,0,0,0,.36.06.8.8,0,0,0,.29,0,.07.07,0,0,0,.05,0,.08.08,0,0,0,0-.07l-1.11-1.49c-.12-.16-.16-.23-.1-.36a.08.08,0,0,0,0-.08.13.13,0,0,0-.07,0"/><path class="cls-1" d="M32.41,34.2s0,0,0,0h0a0,0,0,0,1,0,0,.64.64,0,0,0,0-.49v0l-.32-1.46c0-.13-.05-.2-.12-.2h-.06l0,0s0-.05,0-.06l.43-.3h0l1.57,1a.73.73,0,0,0,.41.18h.09s0,0,0,.06l-.56.38h0l0,0a0,0,0,0,1,0-.05c.07-.11.07-.11-.11-.23l-.42-.29-.65.43.12.46c0,.17.06.23.14.23H33s0,.05,0,.06l-.5.35h0m.1-1.43.45-.3-.62-.42Z"/><path class="cls-1" d="M32.31,31.61l1.52,1a.86.86,0,0,0,.48.21h.06l-.56.38h0c.1-.15.05-.16-.15-.31l-.41-.28-.69.47.12.48c0,.16.07.25.18.25h.07l-.5.35h0a.71.71,0,0,0,0-.57l-.31-1.46c0-.1-.05-.23-.16-.23h-.06l.43-.29m.17,1.22.54-.36L32.29,32l.19.87m-.17-1.3h0l-.44.3a.08.08,0,0,0,0,.1h0a.07.07,0,0,0,.06,0h.06s0,.05.08.16v0l.32,1.45v0a.63.63,0,0,1,0,.47.06.06,0,0,0,0,.08.1.1,0,0,0,0,0h.06l.5-.34a.07.07,0,0,0,0-.11.08.08,0,0,0-.07,0h-.06s-.06,0-.11-.2l-.1-.43.6-.41.37.26,0,0c.06,0,.13.09.13.11s0,0,0,.07a.08.08,0,0,0,0,.09.11.11,0,0,0,.07,0h0l.56-.38a.06.06,0,0,0,0-.1h0a.09.09,0,0,0-.07,0h0a.71.71,0,0,1-.39-.17l-.05,0-1.52-1h0m.22,1.18-.13-.58.49.34Z"/><path class="cls-1" d="M25.49,33.51h-.37a33,33,0,0,1-3.71-.62c.54-.26.17-.16,1.15-.19.47,0,2.32-.39,2.32-.39l.11.58Z"/><path class="cls-1" d="M9.86,33.84a8.19,8.19,0,0,0,2.27-.45,10.65,10.65,0,0,1,2.34-.47,12.76,12.76,0,0,0-1.17-.51,7.92,7.92,0,0,0-2.89-.21,6.18,6.18,0,0,1-.76,1.44,2.84,2.84,0,0,0,.21.2"/><path class="cls-1" d="M8.65,5.21A10.29,10.29,0,0,0,6.33,7.65a25.33,25.33,0,0,0-2.94,5.11,11.86,11.86,0,0,0-1.08,4.93,29.79,29.79,0,0,0,.27,3.23c0,.4.24.53.34.78s.51,1.28.6,1.55a11.39,11.39,0,0,0,1.54,2.3A10.76,10.76,0,0,1,6.92,28.3c.26.75.16,1.34.45,1.77a8.16,8.16,0,0,0,.78.93s0,.43.61.33a26.34,26.34,0,0,0,3.37,2.06,11,11,0,0,1,2.11-.45,9.18,9.18,0,0,1-1.94-1.27c-.4-.36-.38-.58-.84-.61s-.35.41-.35.41-1-.62-1.34-.92a4.9,4.9,0,0,1-1.54-1.74,3.09,3.09,0,0,1-.48-1.93c0-.28-.12-.32-.24-.32a.34.34,0,0,0-.27.25c-.27-.32-.65-1-1.2-1.67a19.79,19.79,0,0,1-1.88-2.62,9.65,9.65,0,0,1-1.17-4,10.47,10.47,0,0,1,.71-5.37A16.36,16.36,0,0,1,5.92,9.06c1-1.23,2.73-3.85,2.73-3.85"/><path class="cls-1" d="M5.51,25.81a.73.73,0,0,0,0-.48c-.1-.19-.42-.37-.42-.52s0-.14,0-.22a.37.37,0,0,1,.25-.19.06.06,0,0,0,0-.07L5.11,24c-.19-.05-.77-.16-.81-.07a.67.67,0,0,1-.17.19A3.58,3.58,0,0,0,3.71,23a1.82,1.82,0,0,0-.52-.61c.14.35.28.72.33.86a11.39,11.39,0,0,0,1.54,2.3A10.76,10.76,0,0,1,6.92,28.3a8.1,8.1,0,0,1,.3,1.26,2.58,2.58,0,0,1,.64.48,13.43,13.43,0,0,0-1.17-2.67,10.52,10.52,0,0,0-1.18-1.56"/><path class="cls-1" d="M2.58,20.92c0,.4.24.53.34.78a3.92,3.92,0,0,0,.15.39,2.07,2.07,0,0,0-.24-.77,1.15,1.15,0,0,1-.2-1,4,4,0,0,0-.24-1.5c0-.05,0-.05,0,0,.07.92.23,1.82.23,2.1"/><path class="cls-1" d="M31,21.14a2.85,2.85,0,0,1,0-.42c0-.21-.16-.5-.09-.7a.63.63,0,0,1,.41-.32c.09,0,.09,0,.14.08a2,2,0,0,0,.31.24c.17.09.12.08.37-.05a1.08,1.08,0,0,0,.69-.88,3.69,3.69,0,0,1,.06-.6c0-.13,0-.49.12-.58s.27.13.38.18c.29.15.27-.35.51-.4s.2.12.34,0,.42-.62.55-.21c0,.12,0,.25,0,.38a.67.67,0,0,0,.1.34.63.63,0,0,1,.11.38c0,.15-.1.2-.16.33s-.06.08,0,.15.1,0,.18.07a.34.34,0,0,1,.13.33,1.33,1.33,0,0,1-.38.67c-.07.07-.25.18-.13.29s.25,0,.31.17-.16.58-.36.76a2.69,2.69,0,0,1-1,.43,3.52,3.52,0,0,1-1.08.05,4.46,4.46,0,0,1-.82,0,.75.75,0,0,1-.63-.66"/><path class="cls-1" d="M31,21.31a2.61,2.61,0,0,1,0-.55,1.54,1.54,0,0,1,.17-.45c.11-.21.26-.17.46-.17s.62-.4.78-.65a9.51,9.51,0,0,0,.46-1.25c.08-.16.11-.34.27-.25.35.19.26.59.25.89s-.08.77-.1,1.16c0,.23,0,.34.22.26a.57.57,0,0,1,.65.17c.11.14.13.3.36.27s.34-.1.28.13a.84.84,0,0,1-.3.42,2.16,2.16,0,0,1-1.26.5,5,5,0,0,1-1.57-.32,3.29,3.29,0,0,1-.58-.13Z"/><path class="cls-1" d="M27.57,18.36c-.07.14-.07.2-.24.24s-.27,0-.39.16a.76.76,0,0,0-.13.76c.1.31.45.4.58.67a1.62,1.62,0,0,1,.12.85,2.87,2.87,0,0,1-.05.93c-.13.26-.48-.12-.67.17a.29.29,0,0,0,0,.36.49.49,0,0,1,.07.41c0,.23-.09.4.11.56a2.87,2.87,0,0,0,.49.26c.21.1.18.26.28.42s.71.26.6.57-.23.06-.37.06-.22.08-.24.24,0,.18.15.28.16.22.25.31a.88.88,0,0,0,.26.12c.1.05.11.12.21.19.29.18.51-.38.67-.53a1.72,1.72,0,0,0,.43-.62,5.83,5.83,0,0,1,.23-.58c.13-.22.43-.4.5-.65a1.88,1.88,0,0,0,0-.58,1.11,1.11,0,0,1,0-.51,1.11,1.11,0,0,0,.13-.4.47.47,0,0,0-.12-.34c-.11-.08-.28,0-.39-.05s-.24-.6-.56-.43c-.11.06-.23.27-.37.17s0-.29,0-.41-.15-.35-.2-.55a.45.45,0,0,1,0-.32c0-.13,0-.24.05-.36,0-.27.18-.52.2-.79s-.09-.27-.17-.38a.76.76,0,0,1-.11-.47c0-.11,0-.31-.11-.35s-.15.13-.19.22-.11.27-.24.2a1.5,1.5,0,0,1-.24-.31c-.12-.16-.34-.26-.49-.07s-.1.38-.19.55"/><path class="cls-1" d="M29.19,24.71a5.85,5.85,0,0,0-.07-1.18,6.21,6.21,0,0,1-.93-.11c-.07,0,0-.11.37-.1a1.6,1.6,0,0,0,.5,0s-.25-1.18-.35-1.48a1.43,1.43,0,0,1-.09-.48s.06-.35.1-.06a8.35,8.35,0,0,0,.23.83c0,.18.08.29.13.11s.2-.31.16-.14a2,2,0,0,0-.15.55c0,.16.18.71.18.87.16,0,.25,0,.36-.17s.13,0,0,.11-.31.19-.35.23a6.3,6.3,0,0,0,0,.8c0,.24-.15.25-.15.25"/><path class="cls-1" d="M21.41,32.88l.89-.51s-.12-.71.35-.95.83-.25,1,.24a13.9,13.9,0,0,0,1.85-1.28A3.42,3.42,0,0,0,26.4,29,12.63,12.63,0,0,1,27,27.74a10.45,10.45,0,0,1-.1-1,.3.3,0,0,1,.34-.26c.18,0,.33.08.34.32.35-.4.89-1.22,1.22-1.7s1.64-1.93,1.91-2.37a20.31,20.31,0,0,0,.87-2.32,4.57,4.57,0,0,0,.28-2c-.08-.63-.12-1.66-.26-2.52a4.21,4.21,0,0,0-.46-1.29c-.07-.25-.32,0-.32-.27s.23-.22.15-.53-.46-1.29-.67-1.85-.93-2.25-1-2.52.42-.86.64-.22,1,2.66,1.15,3a7.59,7.59,0,0,1,.72,1.91,2.41,2.41,0,0,0,.36,1c.1.15.26.22.27.47a2.88,2.88,0,0,0,.06.85c.11.33.39.15.46.55a2.92,2.92,0,0,1,0,.7,3.88,3.88,0,0,1,.16,1.78A12.1,12.1,0,0,1,31,23.68c-.77,1.12-1.29,1.67-1.36,1.78s-.08.49-.37.74-.37.17-.58.5a7.58,7.58,0,0,0-.93,2.05A7.73,7.73,0,0,0,29,27.22c.19-.31.63-.93.72-1.13a6.87,6.87,0,0,1,.35-.87c.17-.26.36-.06.6-.37s.06-1,.06-1l.38-.66.41,1.15a16.12,16.12,0,0,1-1,1.76c-.19.17-.31.27-.41.38s0,.41-.14.62-.4.61-.54.83-.43.51-.56.73a7,7,0,0,1-.66.84c-.3.34-.49.4-.59.71a1.38,1.38,0,0,1-.57.87,4.3,4.3,0,0,1-1,.66,8.1,8.1,0,0,0-.88.6,4.48,4.48,0,0,0-.87.65c-.31.34-.39.34-.39.34a18.92,18.92,0,0,1-2.51-.44"/><path class="cls-1" d="M28.21,19.53s.27.24.41.39a.47.47,0,0,1,.09.54,1.87,1.87,0,0,0-.1.71.82.82,0,0,1-.18.7c-.2.16-.07.31-.28.32a1.33,1.33,0,0,1-.43,0l.07-1.7Z"/><path class="cls-1" d="M27.29,22.06c.29.07.34.17.61,0s0-.38.2-.61S28,21.17,28,21s.19-.62.28-.87,0-.78-.33-.91-.28.42-.76.2a.58.58,0,0,1-.27-.62.79.79,0,0,0-.08.7c.1.31.45.4.58.67a1.62,1.62,0,0,1,.12.85,2.87,2.87,0,0,1-.05.93.15.15,0,0,1-.17.09"/><path class="cls-1" d="M27.19,30.38c-.19,0-.08.15-.12.35s-.18.13-.39.13-.2.13-.31.26a.54.54,0,0,1-.41.21c-.13,0-.19-.06-.19.11s0,.26-.15.24a.4.4,0,0,0-.35.17.41.41,0,0,1-.32.22.86.86,0,0,0-.37.13c-.11,0-.28,0-.37.19s-.1.24-.23.21-.23-.28-.46-.54a.74.74,0,0,1-1.07.33c-.12-.09-.15-.07-.15,0s.68.75.68.75l-.15.05c.6.1,1.09.15,1.09.15s.08,0,.39-.34a4.48,4.48,0,0,1,.87-.65,8.1,8.1,0,0,1,.88-.6,4.3,4.3,0,0,0,1-.66,1.46,1.46,0,0,0,.5-.64,1.75,1.75,0,0,0-.38-.05"/><path class="cls-1" d="M29.14,28.32c-.05,0-.19.16-.22.2s-.15.11-.28.24-.3.37-.43.52-.22.13-.39.06-.09-.3,0-.54a.78.78,0,0,0,.09-.21l-.15.16a7.58,7.58,0,0,1,.93-2.05.89.89,0,0,1,.41-.36c-.1,0-.13-.09-.22,0s0,.17-.19.28a3.41,3.41,0,0,0-.69,1c-.13.33-.44,1-.54,1.32s-.2.71-.26.91.11.3.3.34a.15.15,0,0,1,.1.07h0c.1-.31.29-.37.59-.71a7,7,0,0,0,.66-.84l.25-.33"/><path class="cls-1" d="M33,17.61a2.92,2.92,0,0,0,0-.7c-.07-.4-.35-.22-.46-.55a2.88,2.88,0,0,1-.06-.85c0-.25-.17-.32-.27-.47a2.41,2.41,0,0,1-.36-1,7.59,7.59,0,0,0-.72-1.91c-.16-.28-.7-1.75-1-2.59a.58.58,0,0,0-.24-.05.71.71,0,0,0-.39.27c.25.61.7,1.68.85,2.11s.59,1.55.67,1.85-.15.31-.15.53.25,0,.32.27a5.92,5.92,0,0,1,.41,1,2.35,2.35,0,0,1,.53,0c.18,0,.22.13.22.37a1.86,1.86,0,0,0,.13.54,3.83,3.83,0,0,1,.08.69c0,.19.26.52.29.69a1.73,1.73,0,0,1-.09.74,3.88,3.88,0,0,0-.15.73,2.93,2.93,0,0,0,0,.78,1.7,1.7,0,0,1-.15.58c-.07.2-.16.54-.24.71s-.46.74-.82.52a.28.28,0,0,0-.28,0,5.94,5.94,0,0,1-.34.79,14.65,14.65,0,0,1-1,1.26h0c.45,0,.41.53.39.77a1.31,1.31,0,0,1-.41.63c-.11.11-.11.28-.17.47s-.08.21-.13.31c.22-.25.22-.57.3-.67s.47-.53,1.09-1.39a1.25,1.25,0,0,1,0,.21,5.46,5.46,0,0,1,.47-.67l-.06-.16a11.55,11.55,0,0,0,1.92-4.06A3.88,3.88,0,0,0,33,17.61"/><path class="cls-1" d="M30.07,25.22a2.66,2.66,0,0,0-.23.55,2.38,2.38,0,0,0,.14-.23c.05-.1.18-.29.3-.47a.35.35,0,0,0-.21.15"/><path class="cls-1" d="M29.48,27.12c-.1-.06-.12-.22-.16-.39l-.31.48c0,.19.13.08.32.13s.26-.16.15-.22"/><path class="cls-1" d="M29.53,8.18l-.25-.48-.59-1-.53-.89L27.44,5l-.65-.83-.64-.75L25.82,3a1.15,1.15,0,0,0-.06.34,4.1,4.1,0,0,0-.16.53c0,.22.09.31.19.47a.38.38,0,0,1-.07.49.73.73,0,0,0-.31.48.47.47,0,0,0,.14.44c.29.21.73.18,1,.48s0,.3-.14.39L26,6.81c-.08.05-.19.07-.26.15s0,.38.19.43.19.08.29.12a1,1,0,0,0,.29.07.81.81,0,0,1,.4.12c.07,0,.09.15.14.21.29.36.81.32,1.23.34a.5.5,0,0,1,.32.06c.2.18-.09.31-.16.43s.31.26.45.29.21.08.32.06A.68.68,0,0,0,29.47,9c.11-.06.21-.07.31-.12h0Z"/><path class="cls-1" d="M26,3.16l.88,1.14a2.31,2.31,0,0,0-.68,0,1.15,1.15,0,0,1,.87.28c.34.32.54.68.69.82s.34.41.34.41a4.83,4.83,0,0,0-1.18,0,2.68,2.68,0,0,1,1.29.27c.26.19.28.42.45.66a3.72,3.72,0,0,1,.34.6l-.9,0c-.2,0,.16.08.34.1s.41,0,.53.06.21,0,.28.17.25.58.25.58.37.22,0-.5-.77-1.22-.82-1.4.15-.16.24-.32a1.18,1.18,0,0,0,0-.6,1,1,0,0,1,0-.32,2.13,2.13,0,0,0-.14.55c0,.27-.09.37-.21.37s-.2-.06-.39-.33-.32-.31-.35-.45a6.67,6.67,0,0,1,0-.82s-.07.76-.18.69-.21-.33-.43-.52-.15-.33-.17-.62,0-.17-.07.09-.14,0-.35-.23a5.78,5.78,0,0,0-.72-.7"/><path class="cls-1" d="M29.66,10.08c.11.33.44.46.64.74s.45.45.66.71.5.47.36.72-.27.15-.34.27a1.18,1.18,0,0,0-.09.49c0,.4.39.46.61.69s.12.17.29.22.28.05.37.14c.24.25-.33.39-.09.69s.6.22.69.47-.11.22-.14.34,0,.24.13.33a.73.73,0,0,1,.2.72c-.05.15-.44.45-.28.66a.38.38,0,0,0,.33,0c.12-.06.11-.23.13-.34a2.12,2.12,0,0,1,.22-.61c.08-.17.19-.34.26-.51a2.7,2.7,0,0,0,.08-.41,3.31,3.31,0,0,1,.41-.73,1.4,1.4,0,0,0,.19-.8c-.11-.39-.55,0-.6-.22s.18-.38.27-.52a1.12,1.12,0,0,0,.2-.56,1.83,1.83,0,0,0-.08-.78c0-.12-.08-.25-.24-.24s-.17.14-.22.26-.21.55-.47.49-.07-.34,0-.46a1.75,1.75,0,0,0,.26-.68,2.47,2.47,0,0,1,0-.39c0-.38-.24-.66-.27-1,0-.13-.07-.88-.33-.57-.07.08,0,.28-.17.31s-.19-.14-.18-.26a3,3,0,0,0,.08-.79.81.81,0,0,0-.16-.34,5.15,5.15,0,0,1-.32-.45c-.08-.14-.1-.28-.28-.18s-.2.18-.37.09-.11-.25-.11-.38c0-.36-.12-.41-.42-.55-.12-.06-.46-.44-.62-.35s.06.55,0,.73-.15.14-.24.2a.89.89,0,0,0-.22.29,1.92,1.92,0,0,0-.49,1.14,5.64,5.64,0,0,0,.35,1.4"/><path class="cls-1" d="M32.22,8.78s.09.54-.27.74,0,.68.17,1a5.08,5.08,0,0,1,.34.76,1.09,1.09,0,0,0,.43-.86c0-.69-.48-.67-.67-1.66"/><path class="cls-1" d="M33.27,14.38s.54-.62.67-.63.21,0,0,.3a4.51,4.51,0,0,0-.41,1,1.4,1.4,0,0,1-.28.44,5.22,5.22,0,0,0,0-1.08"/><path class="cls-1" d="M33,13.41a7.2,7.2,0,0,0,.76-1.08c0,.47,0,.54-.58,1.34a.38.38,0,0,0-.18-.26"/><path class="cls-1" d="M30.37,6.41a3.45,3.45,0,0,0,.39,1.18A2.3,2.3,0,0,1,31.25,9c-.54-.42-.8-.82-1-.88s.16-.2,0-.56,0-.26.1-.3,0-.43.07-.86"/><path class="cls-1" d="M32.48,11.9a3.5,3.5,0,0,1-1-.44l-.05-.38a2.75,2.75,0,0,0,.9.41,11.91,11.91,0,0,1-.81-1.69c-.26-.51-.68-.5-.93-.69A3.27,3.27,0,0,1,30,8.32c.16.95-.55.12-.55.12l-.08.44a7.11,7.11,0,0,0,.33,1.2c.11.33.44.46.64.74s.45.45.66.71.5.47.36.72-.26.15-.33.27l.67.4a2.5,2.5,0,0,1,.82.74c.11.23.13.25-.28.08-.71-.3-.09-.1-.21.23a.46.46,0,0,1,.17.09c.24.25-.33.39-.09.69s.6.22.69.47-.11.22-.14.34,0,.24.13.33a.71.71,0,0,1,.22.52h0a8.82,8.82,0,0,0-.52-4.52"/><path class="cls-1" d="M.23,18.31c-.23.08-.09.76-.09,1.07a6.61,6.61,0,0,0,.21,2.68,9.4,9.4,0,0,0,1.22,2.63c.23.39,1.8,2.4,2.07,2.66s.57.56.83.78.54.47.69.58a1.2,1.2,0,0,0,.54.16c.09,0,.19-.31-.11-.39s-.44-.14-.69-.58-.52-1.07-.76-1.51a4.19,4.19,0,0,1-.41-1.59,12.53,12.53,0,0,0-1.08-2.86,11.25,11.25,0,0,0-1.07-2c-.2-.35-.68-1.07-.83-1.34s-.27-.43-.52-.34"/><path class="cls-1" d="M3.88,6.47c-.28-.11-.79.63-1.21,1.24A14.16,14.16,0,0,0,1,11.56,13.87,13.87,0,0,0,.81,16a3.74,3.74,0,0,0,.83,2.34c.49.54.71-.24.41-.2s-.38,0-.39-.43a10.73,10.73,0,0,1,.6-2.59c.36-1.15.77-2.75,1.21-4.66s.86-3.75.41-3.94"/><path class="cls-1" d="M8.21,2.54C8,2.41,7.44,2.88,6.5,4a18.92,18.92,0,0,0-2.25,4c-.43.91-.85,2.23-1.08,2.8s-.68,2.1-.46,1.82.68-1.11,1-1.65S5,9.05,5.57,8.29A26.15,26.15,0,0,0,7.44,5.16c.46-.92,1.1-2.45.77-2.62"/><path class="cls-1" d="M15,.14c-.1-.13-.61,0-.84.12s-.55.32-.94.46a7,7,0,0,0-2,1.12,17.15,17.15,0,0,0-2.14,2A20.18,20.18,0,0,0,7.21,5.94c-.09.15-.07.39.38.11S11,3.7,11.92,3.16A8.67,8.67,0,0,0,14.5,1.35c.55-.75.7-1,.53-1.21"/><path class="cls-1" d="M7.56,3.5a34.26,34.26,0,0,0-2.3,3.41,33.63,33.63,0,0,0-2,3.88l0,.31s1.18-2.42,2-3.74S7.56,3.5,7.56,3.5"/><path class="cls-1" d="M5.59,28.48c-.3-.08-.44-.14-.69-.58s-.52-1.07-.76-1.51a4.19,4.19,0,0,1-.41-1.59,12.53,12.53,0,0,0-1.08-2.86,11.25,11.25,0,0,0-1.07-2c-.2-.35-.68-1.07-.83-1.34s-.27-.43-.52-.34-.09.76-.09,1.07a6.61,6.61,0,0,0,.21,2.68,9.4,9.4,0,0,0,1.22,2.63c.08.14.35.51.67.92h0a4.55,4.55,0,0,0,1,.91.83.83,0,0,0-.14-.23,5.75,5.75,0,0,1-.35-.54l-.2-.22h.12s-1-2.09-1.36-3.25a34.28,34.28,0,0,1-1-3.85A44.34,44.34,0,0,0,2.17,24,19.21,19.21,0,0,0,4.4,27.82c.53.62.92.8,1,1l.28.05c.09,0,.19-.31-.11-.39"/><path class="cls-1" d="M14.11,1.78a13,13,0,0,0-3.72,1.76L8.29,5s.92-.78,1.2-1.11a7.76,7.76,0,0,1,1.3-1.14c.37-.22,1.54-1,1.54-1s-1.32.68-1.57.86a6.06,6.06,0,0,0-1,.81.69.69,0,0,1-.16.13A9.74,9.74,0,0,1,13,.89a3.69,3.69,0,0,0,1-.54,5.83,5.83,0,0,1-.75.37,7,7,0,0,0-2,1.12,17.15,17.15,0,0,0-2.14,2A20.18,20.18,0,0,0,7.21,5.94c-.09.15-.07.39.38.11S11,3.7,11.92,3.16a16,16,0,0,0,2.19-1.38"/><path class="cls-1" d="M15.53,1.71c0-.21-1.43-.13-4,1.3A10.52,10.52,0,0,0,7.88,6.36c-.21.19,1.38-.6,2.7-1.11a18.73,18.73,0,0,0,3.27-1.8c.88-.55,1.66-1.36,1.68-1.74"/><path class="cls-1" d="M14,2.29A36.48,36.48,0,0,1,9,5.48c1.6-.55,4.64-2.39,5-3.19"/><path class="cls-1" d="M9.56,4.5c-.31-.09-1.22.77-1.83,1.67S6.29,8.21,6,8.61a3.85,3.85,0,0,0-.75,1.55c0,.48-.65.84-.44,2.18s2.56-2.85,3.52-4A5.75,5.75,0,0,0,9.72,5.57c.11-.59.15-1-.16-1.07"/><path class="cls-1" d="M2.05,18.09c-.3,0-.38,0-.39-.43a10.73,10.73,0,0,1,.6-2.59c.36-1.15.77-2.75,1.21-4.66s.82-3.58.46-3.9c-.6.92-2.61,4.45-2.72,10.63v.49a2.59,2.59,0,0,0,.43.66c.49.54.71-.23.41-.2"/><path class="cls-1" d="M1.92,9.08A14.92,14.92,0,0,0,1,11.56,13.87,13.87,0,0,0,.81,16a3.74,3.74,0,0,0,.83,2.34.69.69,0,0,0,.14.12h0c0-.24-.21-.38-.28-.49s-.24-.17-.15-.45-.07-.36-.07-.72A30.94,30.94,0,0,1,1.81,12a22,22,0,0,0-.64,4.27c0,.39,0,.62-.08.53a4.65,4.65,0,0,1-.11-1c0-.41-.08-1-.08-1.16a9.46,9.46,0,0,1,.22-3.14,15.44,15.44,0,0,1,.8-2.43"/><path class="cls-1" d="M6.21,8.34,6,8.61a3.85,3.85,0,0,0-.75,1.55c0,.48-.65.84-.44,2.18h0a.52.52,0,0,0,.29-.23c.33-.44,2.3-3.43,2.36-3.5s.32-.5,0-.33-.17,0,0-.27a17.27,17.27,0,0,0,1.28-2.4s-.36.66-1.36,2.09-1.17,1.56-1.47,2-.27-.31,0-.63a2.14,2.14,0,0,0,.29-.72"/><path class="cls-1" d="M3.11,17.28a3.62,3.62,0,0,1-.23.6c-.11.13-.11.26,0,.33s.17-.07.28-.37a4.35,4.35,0,0,1,.73-1.19c.28-.31,1.19-1.65,1.82-2.51a11.74,11.74,0,0,0,1.58-3c.36-1,.72-2.37.38-2.66s-1.82,1.91-2.43,2.85a12.64,12.64,0,0,0-1.44,2.9c-.32,1-.4,2.35-.71,3.07"/><path class="cls-1" d="M7,10.87c-.17-.12.36-1.44.36-1.44s-.83,1.47-1.11,1.34.54-1.19.54-1.19-1,1.34-1.09,1.31.13-.43.33-.77c-.31.44-.6.88-.8,1.19a12.64,12.64,0,0,0-1.44,2.9c-.32,1-.4,2.35-.71,3.07a3.62,3.62,0,0,1-.23.6c-.11.13-.11.26,0,.33s.17-.07.28-.37a4.35,4.35,0,0,1,.73-1.19c.28-.31,1.19-1.65,1.82-2.51a11.74,11.74,0,0,0,1.58-3c.11-.31.22-.66.31-1-.21.38-.49.82-.59.74"/><path class="cls-1" d="M7.68,9.89A10.56,10.56,0,0,0,6.85,12a6,6,0,0,1-1.38,2.24,6.26,6.26,0,0,0,.34-1,3.9,3.9,0,0,1-.58,1.11,6.54,6.54,0,0,0-.71,1.51c.38-.53.84-1.2,1.21-1.71a11.74,11.74,0,0,0,1.58-3,12.49,12.49,0,0,0,.37-1.23Z"/><path class="cls-1" d="M7.82,18.07c-.27,0-1.29.71-2.54,3A8.6,8.6,0,0,0,4,25.57a1.31,1.31,0,0,0,.39.76c.14.09.25,0,.16-.21a.89.89,0,0,1,0-.78c.14-.26.6-1.14.8-1.45S6.53,22,7,21.23a7.37,7.37,0,0,0,.87-1.69c.2-.64.25-1.49,0-1.47"/><path class="cls-1" d="M5.35,23.89l.13-.21a2.25,2.25,0,0,1-.23-.83,6.78,6.78,0,0,0-1,2.47c.34-1.92.73-2.56,1-2.78a3.22,3.22,0,0,1,0-.44,2.71,2.71,0,0,0-.76.76A6.78,6.78,0,0,0,4,25.57a1.31,1.31,0,0,0,.39.76c.14.09.25,0,.16-.21a.89.89,0,0,1,0-.78c.14-.26.6-1.14.8-1.45"/><path class="cls-1" d="M8.61,19.53c-.14-.15-.68.4-1.37,1.7A12.83,12.83,0,0,0,6.41,26c.08.37.86-1.5,1.3-2.23a7,7,0,0,0,.8-2.51,3.64,3.64,0,0,0,.1-1.72"/><path class="cls-1" d="M7.76,21.37a4.64,4.64,0,0,1,.91-1.66.38.38,0,0,0-.06-.18c-.14-.15-.68.4-1.37,1.7A12.83,12.83,0,0,0,6.41,26c.07.32.68-1.09,1.13-1.92a22.33,22.33,0,0,1,.22-2.7"/><path class="cls-1" d="M6.69,17.38c-.2,0-.58,1.1-.72,1.95a35.55,35.55,0,0,0-.26,4.28c0,.54.22,2.54.32,2.9a9.33,9.33,0,0,1,.33,1.28c0,.26,0,.5-.11.55s0,.2.14.17.22-.14.24-.39.08-.55.12-.93a11.72,11.72,0,0,1,.32-1.73,9.38,9.38,0,0,0,.34-1.68,15.63,15.63,0,0,0,.14-3.68c-.14-2-.59-2.77-.86-2.72"/><path class="cls-1" d="M7.55,20.1c-.14-2-.59-2.77-.86-2.72s-.58,1.1-.72,1.95a35.55,35.55,0,0,0-.26,4.28c0,.41.15,1.65.24,2.38H6c.15.22.4.65.37.36a23.54,23.54,0,0,1,.07-2.49c.06-.79.2-3.36.2-3.36,0,.94,0,2.51-.06,4.42a6.7,6.7,0,0,0,.22,2.27h0a11.72,11.72,0,0,1,.32-1.73,9.38,9.38,0,0,0,.34-1.68,15.63,15.63,0,0,0,.14-3.68"/><path class="cls-1" d="M13.65,37.49a1.07,1.07,0,0,1,.79-.32c.16.06,0,.26-.21.32a1.55,1.55,0,0,0-.71.41,1.51,1.51,0,0,1-.35.34c-.11.07-.23,0-.08-.17a7.31,7.31,0,0,1,.56-.58"/><path class="cls-1" d="M12.66,38.52c-.1.08-.23.19-.15.24s.15,0,.21-.07.12-.13.08-.18-.14,0-.14,0"/><path class="cls-1" d="M22.5,37.36c-.07,0-.21,0-.1.14a10.14,10.14,0,0,0,1.09.86c.29.18.37.25.51.23s.37-.05.27-.15-.28-.15-.62-.33-1-.65-1.15-.75"/><path class="cls-1" d="M29.27,27.3c.2,0,.34-.05.19-.24a.58.58,0,0,1-.17-.55c0-.31,0-.33-.15-.34s-.13.19-.11.29.06.15,0,.37-.1.4.22.47"/><path class="cls-1" d="M26.9,29.34c-.15.22-.32.25-.47.5a.54.54,0,0,0,0,.66c.13.19.32.07.35-.22a1.3,1.3,0,0,1,.26-.54c.08-.17.15-.27.1-.4s-.14-.12-.22,0"/><path class="cls-1" d="M13,33a5.55,5.55,0,0,1-.9-.47c0-.07.38-.27.38-.27L12,32s0,.2-.25.2a.8.8,0,0,1-.64-.3c-.27-.19-1.1-.86-1.35-1.05S9,30.3,9,30.3s-.14.2-.22.2-.15,0,0,.15,1,.64,1.09.76,0,.22-.13.14-.83-.49-.83-.49a11.75,11.75,0,0,0,.9.76c.25.17,1.8,1.07,2,1.19a4.76,4.76,0,0,0,.56.26A5.43,5.43,0,0,1,13,33"/><path class="cls-1" d="M28.58,26.15a7.79,7.79,0,0,0-1.09,2c-.07.5.13.27.18,0a4.21,4.21,0,0,1,.47-1c.14-.2.43-.68.51-.83s.06-.3-.07-.12"/><path class="cls-1" d="M29.53,24.89c-.06.17,0,.36.08.17s.17-.37.25-.51,0-.22-.1-.1a2.32,2.32,0,0,0-.23.44"/><path class="cls-1" d="M12.64,39.77c0,.14-.17.22-.57.19A1.88,1.88,0,0,1,11,39.39c-.19-.21-.18-.26-.48-.3s-.23-.14-.16-.2a.52.52,0,0,1,.5-.06,1.76,1.76,0,0,0,.6.15c.3,0,1.34.24,1.18.79"/><path class="cls-1" d="M25.05,38.54c.11.11.07.3-.16.42s-.47.08-.65.26a2,2,0,0,1-.64.47c-.3.12-.69.09-.75,0a.38.38,0,0,1,.15-.44,3.93,3.93,0,0,1,.52-.35c.2-.07.42-.08.67-.17s.28-.26.44-.29a.42.42,0,0,1,.42.11"/><path class="cls-1" d="M32.14,19.42a9.1,9.1,0,0,1-.36,1.35c-.13.28.09.32.2.07a10.22,10.22,0,0,0,.32-1.33c0-.25-.11-.36-.16-.09"/><path class="cls-1" d="M31.85,17.59s-.07,0-.07,0,0,.43.07.6,0,.35.14.34.28-.08.31-.18-.07-.19-.18-.37a1.89,1.89,0,0,1-.19-.48s0,0-.08.05"/><path class="cls-1" d="M11.93,31.55a.61.61,0,0,1-.73.05c0,.1,0,.44.3.48s.54-.1.43-.53"/><path class="cls-1" d="M24,32.4a.24.24,0,0,1-.13,0,1,1,0,0,1-.32-.42.09.09,0,0,1,.06-.12.1.1,0,0,1,.12.08,1.09,1.09,0,0,0,.23.3c.05,0,.06,0,.15-.07a.44.44,0,0,1,.14-.13.3.3,0,0,1,.17-.05.11.11,0,0,0,.08,0h0l0,0a.26.26,0,0,1,.09-.09.49.49,0,0,1,.21,0c.05,0,.09,0,.12,0a.61.61,0,0,0,.17-.16.79.79,0,0,1,.35-.27.08.08,0,0,0,0,0,.11.11,0,0,1,.09-.1.11.11,0,0,1,.1.1s0,.06,0,.08,0,0,0,.05a.09.09,0,0,1,0,.07.11.11,0,0,1-.08,0c-.07,0-.19.12-.28.21A.85.85,0,0,1,25,32a.47.47,0,0,1-.23,0h-.11l0,0s-.05.07-.09.09l-.14,0-.09,0a.41.41,0,0,0-.1.09.34.34,0,0,1-.25.15"/><path class="cls-1" d="M26,31.24a.25.25,0,0,1-.21-.09.2.2,0,0,1,0-.22.09.09,0,0,1,.12-.05.1.1,0,0,1,.05.13,0,0,0,0,0,0,0s0,0,.08,0a.06.06,0,0,0,.06-.05c0-.06,0-.09-.13-.17a.44.44,0,0,1-.18-.2.11.11,0,0,1,.12-.12,1,1,0,0,1,.22.13.47.47,0,0,0,.17.09s.09,0,.16,0a1,1,0,0,1,.2-.06c.18,0,.2,0,.23-.16a.13.13,0,0,1,0-.06c0-.19.08-.27.34-.26a.09.09,0,0,1,.09.1.09.09,0,0,1-.09.09c-.13,0-.13,0-.16.1s0,.05,0,.07c-.06.26-.18.29-.39.31a.37.37,0,0,0-.14,0,.4.4,0,0,1-.25.05.62.62,0,0,1,0,.13.25.25,0,0,1-.2.19H26"/><path class="cls-1" d="M26.9,26.8s.07.29.49.12a3.34,3.34,0,0,0-.35.72c0,.15-.09-.41-.14-.84"/><path class="cls-1" d="M27.55,26.75l.56-.77s-.21.92-.56.77"/><path class="cls-1" d="M5.73,29a3.64,3.64,0,0,0,1.06,1.19A4.81,4.81,0,0,0,8.3,31a.37.37,0,0,0,.45-.23.42.42,0,0,0-.08-.43,1.48,1.48,0,0,0-.47-.21,2.36,2.36,0,0,1,.38.27.3.3,0,0,1,.05.31.28.28,0,0,1-.29.12,5.22,5.22,0,0,1-1.4-.76,3.72,3.72,0,0,1-1-1,.74.74,0,0,1-.13-.19.05.05,0,0,0-.08.06"/><path class="cls-1" d="M8.15,31s0,.41.61.32a25.12,25.12,0,0,0,3.37,2.06l.2-.07a19.29,19.29,0,0,1-2.12-1.19c-.92-.61-1.39-.94-1.39-.94s-.53.15-.67-.18"/><path class="cls-1" d="M4.35,11.09c-.14,0-.3.56-.35.7a3.43,3.43,0,0,1-.37.71,5.53,5.53,0,0,0-.33.85,4.4,4.4,0,0,0-.25.75c-.13,0-.21-.24-.35-.3-.05.18.13.33.17.5a1.23,1.23,0,0,1-.08.55c-.07.32-.12.64-.18,1s0,.44,0,.65c-.06.39,0,.8-.13,1.18a2,2,0,0,0-.13.59,1.09,1.09,0,0,0,.15.39.37.37,0,0,0,.35.23.32.32,0,0,0,0-.46.62.62,0,0,1-.17-.49c0-.45.07-1,.13-1.41s.09-.92.18-1.36a2.73,2.73,0,0,1,.15-.56c0-.11.15-.19.17-.34s0-.2,0-.29a4.11,4.11,0,0,1,.32-1,1.91,1.91,0,0,0,.15-.28c0-.1,0-.22.06-.32s.15-.12.23-.2.14-.18.16-.37,0-.52.14-.65"/><path class="cls-1" d="M4.86,25.25a3.68,3.68,0,0,0,.74,3c-.06-.39-.4-.76-.58-1.39a4.31,4.31,0,0,1-.09-1.57Z"/><path class="cls-1" d="M5.63,8.67a22.93,22.93,0,0,0-1.72,3A5.19,5.19,0,0,0,4.7,10.4a9.46,9.46,0,0,1,.54-.91c.08-.1.22-.45.29-.52s.1-.3.1-.3"/><path class="cls-1" d="M3.63,12.23s-.43,1-.7,1.73c.1-.09.24-.16.25-.31s.2-.39.21-.57a2.15,2.15,0,0,1,.24-.58,1.19,1.19,0,0,0,0-.27"/><path class="cls-1" d="M2.67,14.81a10,10,0,0,0-.34,2.58,1.31,1.31,0,0,0,.19-.89,3.2,3.2,0,0,1,0-.83,1.19,1.19,0,0,1,.12-.49.65.65,0,0,0,0-.37"/><path class="cls-1" d="M29.35,8.33a.69.69,0,0,0,.65.49,2.7,2.7,0,0,1,.53.93c0,.16-.46.22-.37.39a1.32,1.32,0,0,0,.37.35c.09.1.53.23.69.42a.78.78,0,0,1,.22.6,3.22,3.22,0,0,0,0,.58c0,.13-.09.08-.24,0s-.09,0-.36-.29-.89-.64-1.06-1,0-.57,0-.86-.19-.39-.34-.52-.11-.31-.14-.45a1.18,1.18,0,0,1,0-.65"/><path class="cls-1" d="M27.2,8.44a.54.54,0,0,1,0,.25A1.47,1.47,0,0,0,27.1,9c0,.19-.15.31-.15.5s.15.32.1.48-.13.1-.2.12a.47.47,0,0,0-.21.23.42.42,0,0,0,0,.31c0,.08,0,.18.09.26a.79.79,0,0,0,.14.23c.07.06.2.11.25.19a.21.21,0,0,1-.08.27c-.09.06-.19,0-.28.07s-.1.42-.05.6a1.41,1.41,0,0,0,.33.44.93.93,0,0,0,.38.2c.13.05.26.12.4.16l.48.13a.68.68,0,0,1,.26.15c.19.16.33.38.53.54s.32.26.47.41a.62.62,0,0,1,.13.24,3.36,3.36,0,0,0,.24.74l.07.11a1.06,1.06,0,0,0,.19.23.94.94,0,0,1,.15.28,2.62,2.62,0,0,0,.45.8,1.44,1.44,0,0,0,.38.36,1.74,1.74,0,0,1,.39.42c0,.08.09.19.19.17s.27-.49.32-.67c.09-.33,0-1-.48-.81-.16.07-.36.28-.52.09s0-.55.08-.73a1.25,1.25,0,0,1,.15-.36.6.6,0,0,0,.13-.28c0-.19,0-.36-.26-.35s-.32.31-.5.25-.13-.32-.13-.46a3.85,3.85,0,0,1,.16-.75c0-.2.14-.44,0-.59a.49.49,0,0,0-.18-.14c-.08,0-.18,0-.24-.06s0-.36.13-.4a1,1,0,0,0,.48-.39A.31.31,0,0,0,31,11.7a2.26,2.26,0,0,1,0-.58c.05-.18.21-.31.15-.52s-.3-.17-.48-.17c-.43,0-.62.42-.89.69a.37.37,0,0,1-.5,0c-.14-.16,0-.35.13-.47a.82.82,0,0,1,.27-.22c.32-.2.25-.68.07-.95a.39.39,0,0,1-.06-.11s0-.08,0-.11A1.29,1.29,0,0,0,29.55,9c-.08-.14-.31-.32-.39-.07a2.12,2.12,0,0,1-.17.54c-.08.11-.3.37-.39.11s.08-.4,0-.6-.14-.27-.32-.31a.61.61,0,0,1-.23-.11c-.19-.15-.3-.35-.56-.4s-.37.06-.34.29"/><path class="cls-1" d="M30.1,12.25c0-.35-.27-.31-.34-.14s-.12.17-.26.1-.19-.32-.27-.73-.19-.71-.5-.83A1.6,1.6,0,0,1,28,9.78c0-.22.1-.89-.14-1a1.86,1.86,0,0,1-.46-.59.23.23,0,0,0-.16.28.54.54,0,0,1,0,.25A1.47,1.47,0,0,0,27.1,9c0,.19-.15.31-.15.5s.15.32.1.48-.13.1-.2.12a.47.47,0,0,0-.21.23.42.42,0,0,0,0,.31c0,.08,0,.18.09.26a.79.79,0,0,0,.14.23c.07.06.2.11.25.19a.21.21,0,0,1-.08.27c-.09.06-.19,0-.28.07s-.1.42-.05.6a1.31,1.31,0,0,0,.33.44.93.93,0,0,0,.38.2c.13.05.26.12.4.16l.48.13a.6.6,0,0,1,.26.16c.19.15.33.37.53.53s.32.26.47.41a.62.62,0,0,1,.13.24.84.84,0,0,1,.05.17.08.08,0,0,0,0,0c.12-.43-.07-.4-.08-.57a6.85,6.85,0,0,0-.55-1,.4.4,0,0,0-.22-.19l-.36-.13a.65.65,0,0,1,.36,0c-.19-.33-.47-1-.53-1.11s-.23-.09-.4-.19-.29-.33-.19-.26a3.64,3.64,0,0,0,.55.19,1.81,1.81,0,0,1-.1-.36l-.15-.7a1.74,1.74,0,0,1,.25.49,2.42,2.42,0,0,0,.17.45s.09-.34.24-.43.23.07.11.17a1.08,1.08,0,0,0-.26.55,9.3,9.3,0,0,0,.84,1.71,6.88,6.88,0,0,0,.18-.68c.09-.38.14-.09.14.1a5.14,5.14,0,0,1-.2.82s.29.64.25.4a2.47,2.47,0,0,1,.16-.79c.05-.19.05-.48.1-.82"/><path class="cls-1" d="M30.23,26.37A.87.87,0,0,0,30,25.5c.22-.34.3-.39.44-.47s.34-.19.35-.7.35-.61.5-.12a1.41,1.41,0,0,1-.16,1.12,4,4,0,0,1-.9,1"/><path class="cls-1" d="M31.77,21.08a1.17,1.17,0,0,0-.78.12c-.29.21-.09.45.06.67a.43.43,0,0,1,.07.37,2,2,0,0,1-.1.37,1.2,1.2,0,0,1-.21.34,1.11,1.11,0,0,0-.13.36.71.71,0,0,0,0,.41c0,.16.21.25.32.36s.42.46.12.61c-.12.06-.22,0-.31.13a.48.48,0,0,0-.06.39c0,.13.08.29,0,.41s-.26.09-.33.26,0,.27.1.43,0,.32-.11.47a1.64,1.64,0,0,0-.15.49,1.77,1.77,0,0,1-.31.63c-.06.09-.1.21-.24.19s-.15-.14-.23-.17-.42.16-.39.37a.84.84,0,0,0,.77,0c.1-.06.18-.18.3-.22s.28,0,.41,0,.26-.13.4-.21a2,2,0,0,1,.59-.2c.18,0,.41-.08.47-.25a.46.46,0,0,0,0-.38c-.06-.11-.21-.19-.19-.34s.17-.21.28-.29.25-.24.4-.34.36-.18.5-.42a2,2,0,0,1,.28-.41.73.73,0,0,0,.17-.55c-.14-.07-.27,0-.42,0s.09-.21.18-.3a4.46,4.46,0,0,0,.54-.75A2.16,2.16,0,0,0,34,23.2c.08-.23.22-.43.32-.65s.24-1.07-.27-1c-.13,0,0-1.37-.56-1.41-.21,0-.38.15-.54.29a3.07,3.07,0,0,0-.41.54.92.92,0,0,1-.74.15"/><path class="cls-1" d="M32.39,24.64a3,3,0,0,0-.52-2.41c-.86-1-.65-.85-.41-.93s.27-.31.88.08.51.54.51.61.11-.25.26-.28.23-.26,0-.52-.19-.29,0-.17.12.35.17.12a4.56,4.56,0,0,0,.14-.57c0-.12.08.14,0,.42s0,.38.14.17.1-.6.12-.21,0,.54.22.52.36,0,.47.33a3,3,0,0,1-.38,1.39,4.57,4.57,0,0,1-.55.91c-.19.25-.21.44-.45.57s-.74.59-.67,0"/><path class="cls-1" d="M31.32,23.47s.91.39.54,2.18.09.68.2.05.21-1.89-.74-2.23"/><path class="cls-1" d="M33,24.73c0-.15.09-.21.18-.3a.75.75,0,0,0,.15-.16c-.05-.07,0-.27.21-.83,0,0-.45.57-.64.39a5.91,5.91,0,0,1,.26-1.16c0-.15-.17.26-.3.52s0,.33-.16.72-.28.33-.3.53,0,.64-.23.78-.32.43-.46.5-.18.49-.26.7a4,4,0,0,1-.36.69c-.1.15-.18.51-.34.54a.86.86,0,0,0-.48.28c-.15.17-.2.06-.37.33a.82.82,0,0,1,.22-.16c.13,0,.28,0,.41,0s.26-.13.4-.21a2,2,0,0,1,.59-.2c.18,0,.41-.08.47-.25a.46.46,0,0,0,0-.38c-.06-.11-.21-.19-.19-.34s.17-.21.28-.29.25-.24.4-.34.36-.18.5-.42a2,2,0,0,1,.28-.41.73.73,0,0,0,.17-.55c-.14-.07-.27,0-.42,0"/><path class="cls-1" d="M29.45,27.35c.07,0,.09-.09.11-.13a.44.44,0,0,0,0-.3,1.46,1.46,0,0,1-.07-.19c0-.05,0-.13.09-.08s0,.11.05.15.05,0,.07.07a.92.92,0,0,0,.22.17c.08.07-.12.34-.14.36s-.18.29-.31.46,0,0-.07,0-.27.21-.32.16,0-.13,0-.21,0-.24.11-.31.07-.07.14-.1Z"/><path class="cls-1" d="M29.14,28a1.22,1.22,0,0,0-.1.23c0,.07,0,.14,0,.15s-.11.15-.11.15a2.43,2.43,0,0,1-.34.35,1.49,1.49,0,0,0-.3.38c-.12.12-.21.25-.3.23a.5.5,0,0,1-.19-.07s-.11-.1.09-.22a2.5,2.5,0,0,0,.45-.38c.15-.15.33-.3.39-.37a.52.52,0,0,0,.17-.2,1.08,1.08,0,0,1,.09-.34c.07-.11.16-.05.11.09"/><path class="cls-1" d="M8.6,30.15a1.3,1.3,0,0,1,.6.3c.28.25-.39-.11-.6-.3"/><path class="cls-1" d="M6.85,27.47a1.82,1.82,0,0,0,.16.31,5,5,0,0,1,.32.6c0,.11.12.24.16.34s.11.24.15.37.14.35.2.52,0,.36.24.4.27.13.35.08,0-.25,0-.33-.13-.19-.17-.29S8,29.16,8,29s-.18-.33-.25-.5A3.51,3.51,0,0,0,7.48,28a5,5,0,0,1-.25-.52,3.41,3.41,0,0,0-.17-.33c0-.06,0-.22-.12-.24s-.08.13-.08.19a.78.78,0,0,0,0,.34"/><path class="cls-1" d="M6.22,7.81A13.71,13.71,0,0,1,7.78,5.94c.3-.24.28-.21.19-.1l-.69,1c-.11.16,0-.22-.2.1s-.21.13-.34.33-.16.49-.52.55"/></g></g></svg>